<?xml version="1.0" standalone="no"?>
<!DOCTYPE svg PUBLIC "-//W3C//DTD SVG 1.1//EN" "http://www.w3.org/Graphics/SVG/1.1/DTD/svg11.dtd" >
<svg>
<metadata>
Created by FontForge 20090622 at Thu Jun  4 03:54:36 2015
 By deploy user
</metadata>
<defs>
<font id="YanoneKaffeesatz-Light" horiz-adv-x="432" >
  <font-face 
    font-family="Yanone Kaffeesatz"
    font-weight="300"
    font-stretch="normal"
    units-per-em="1000"
    panose-1="2 0 0 0 0 0 0 0 0 0"
    ascent="800"
    descent="-200"
    x-height="500"
    cap-height="700"
    bbox="-122 -200 851 955"
    underline-thickness="50"
    underline-position="-19"
    unicode-range="U+0020-U+2212"
  />
<missing-glyph horiz-adv-x="254" 
 />
    <glyph glyph-name="fi" unicode="fi" horiz-adv-x="397" 
d="M341 13q0 -5 -1 -7.5t-6 -4t-16.5 -1.5h-32.5v473q0 20 11.5 23.5t44.5 3.5v-487zM11 452v26.5t1.5 14.5t5 6t9.5 1h60v63q0 61 15.5 96t40.5 53t54.5 22.5t58.5 4.5q48 0 75 -9.5t27 -26.5q0 -16 -7 -33q-41 19 -94 19q-21 0 -41.5 -3.5t-37 -16t-26.5 -38t-10 -69.5
v-62h84q0 -17 -0.5 -26.5t-2 -14.5t-4 -6t-7.5 -1h-70v-439q0 -4 -2 -7q-4 -6 -12 -6h-41v452h-76z" />
    <glyph glyph-name="fl" unicode="fl" horiz-adv-x="407" 
d="M10 452v26.5t1.5 14.5t5 6t9.5 1h60v63q0 61 15.5 96t38 52.5t48.5 22t47 4.5q34 0 63 -7.5t52 -20.5v-697q0 -4 -2 -7q-4 -6 -12 -6h-41v682q-14 5 -28.5 7t-28.5 2t-31 -2.5t-31.5 -14.5t-24.5 -36.5t-10 -68.5v-69h100q0 -17 -0.5 -26.5t-2 -14.5t-4 -6t-7.5 -1h-86
v-439q0 -4 -2 -7q-4 -6 -11 -6h-42v452h-76z" />
    <glyph glyph-name=".notdef" horiz-adv-x="254" 
 />
    <glyph glyph-name=".null" horiz-adv-x="0" 
 />
    <glyph glyph-name="nonmarkingreturn" horiz-adv-x="172" 
 />
    <glyph glyph-name="space" unicode=" " horiz-adv-x="172" 
 />
    <glyph glyph-name="numbersign" unicode="#" 
d="M314 199l-4 -79q-1 -10 -11.5 -11.5t-39.5 -1.5l5 92h-113l-4 -79q-1 -10 -11.5 -11.5t-38.5 -1.5l5 92h-64q0 28 1.5 37t11.5 9h53l7 124h-73q0 28 1.5 37t11.5 9h62l4 72q1 10 11 11.5t39 1.5l-5 -85h113l4 72q1 10 11.5 11.5t39.5 1.5l-5 -85h70q0 -29 -1.5 -37.5
t-12.5 -8.5h-58l-7 -124h79q0 -29 -1.5 -37.5t-12.5 -8.5h-67zM153 245h113l7 124h-113z" />
    <glyph glyph-name="dollar" unicode="$" 
d="M186 -7q-32 1 -54.5 6t-37 11.5t-21.5 13t-7 11.5q0 3 1.5 8.5t4 12t5.5 12.5t7 10q14 -12 40 -21.5t71 -9.5q60 0 87 29.5t27 78.5q0 32 -14.5 59t-52.5 63l-112 105q-30 29 -46 57t-16 58q0 50 35 81t98 37v97q0 16 12 20.5t38 4.5v-121q57 -3 82 -15.5t25 -16.5
q0 -7 -4 -19.5t-12 -20.5q-11 8 -38.5 15.5t-65.5 7.5q-51 0 -81 -16.5t-30 -54.5q0 -23 14 -44t38 -44l123 -114q36 -35 50.5 -67t14.5 -73q0 -30 -7 -56.5t-22.5 -47.5t-40.5 -35t-62 -19v-94q0 -15 -11.5 -19.5t-37.5 -4.5v115z" />
    <glyph glyph-name="percent" unicode="%" horiz-adv-x="712" 
d="M61 524q0 97 37.5 140.5t103.5 43.5q33 0 58 -8.5t41.5 -29.5t25 -56.5t8.5 -88.5q0 -94 -36 -139.5t-102 -45.5q-32 0 -57.5 6.5t-43 26.5t-26.5 56t-9 95zM114 520q0 -42 5.5 -68.5t16 -41.5t25.5 -20.5t35 -5.5q40 0 63.5 33t23.5 108q0 42 -5 69t-15.5 42t-25.5 21
t-35 6q-40 0 -64 -31t-24 -112zM377 176q0 97 37.5 140.5t103.5 43.5q33 0 58 -8.5t41.5 -29.5t25 -56.5t8.5 -88.5q0 -94 -36 -139.5t-102 -45.5q-32 0 -57.5 6.5t-43 26.5t-26.5 56t-9 95zM429 171q0 -42 5.5 -68.5t16 -41.5t26 -20.5t35.5 -5.5q39 0 63 33t24 108
q0 42 -5 69t-15.5 42t-25.5 21t-35 6q-41 0 -65 -31t-24 -112zM159 -8q-10 1 -17 5q-7 3 -12 7t-5 10l421 694q9 -3 16 -7q6 -3 11 -7.5t5 -10.5q0 -1 -18 -31.5l-47.5 -79l-67.5 -111l-77 -126.5z" />
    <glyph glyph-name="ampersand" unicode="&#x26;" horiz-adv-x="513" 
d="M236 706q65 0 104.5 -15t39.5 -29q0 -11 -4 -22t-9 -17q-50 34 -126 34q-22 0 -42.5 -3.5t-36.5 -14t-25.5 -29t-9.5 -49.5q0 -32 22 -81t56.5 -104.5t76.5 -112t83 -104.5q11 36 14 70t3 52q0 80 -24.5 134.5t-59.5 81.5q29 5 57 5.5t48 0.5h46.5t41.5 -2q2 -6 2 -22
q0 -11 -7 -17.5t-34 -6.5l-72 1q7 -8 16.5 -22t18 -36t14.5 -52.5t6 -72.5q0 -13 -1 -31.5t-4 -39.5t-9 -44t-15 -45q26 -29 48 -49.5t36 -28.5q-1 -7 -4.5 -14.5t-8.5 -14t-10.5 -11t-11.5 -4.5q-7 0 -28.5 19t-50.5 51q-24 -31 -62 -51t-95 -20q-56 0 -91.5 16t-56 41.5
t-28 58.5t-7.5 66q0 31 9.5 59.5t25.5 52t36.5 42t43.5 31.5q-36 60 -59 114.5t-23 96.5q0 37 12.5 63.5t35 43t53 24t66.5 7.5zM338 103q-39 45 -81 100t-80 113q-35 -20 -59.5 -56.5t-24.5 -90.5q0 -22 5.5 -44.5t19 -41t37.5 -30t61 -11.5q45 0 74 17.5t48 43.5z" />
    <glyph glyph-name="quotesingle" unicode="'" horiz-adv-x="128" 
d="M76 585q-1 -1 -6 -1h-10h-15q-1 4 -2.5 23.5t-3 45.5l-3 53.5t-1.5 47.5q0 27 3 29q3 1 11 1.5t16 0.5t16 -0.5t11 -0.5q1 -20 -0.5 -53t-4.5 -64.5t-6 -55.5t-5 -26z" />
    <glyph glyph-name="parenleft" unicode="(" horiz-adv-x="294" 
d="M125 324q0 -96 16 -175.5t39 -141t48 -103t43 -62.5q-4 -17 -11.5 -28.5t-19.5 -11.5q-4 0 -18.5 14.5t-33.5 43.5t-40 73t-38.5 101.5t-29 129.5t-11.5 158q0 82 12 149.5t30 121.5t39.5 93.5t41 66t33 39.5t16.5 13q12 0 18.5 -8.5t11.5 -27.5q-21 -26 -46.5 -65.5
t-47.5 -94t-37 -126t-15 -159.5z" />
    <glyph glyph-name="parenright" unicode=")" horiz-adv-x="294" 
d="M169 324q0 86 -14.5 156.5t-36.5 126t-47.5 96t-47.5 66.5q5 19 11.5 27.5t18.5 8.5q3 0 16.5 -12.5t32.5 -38.5t40.5 -66t39.5 -93.5t30 -121.5t12 -151t-11.5 -154t-29 -129t-38 -102t-39.5 -74t-33.5 -45.5t-18.5 -15.5q-13 0 -20 11.5t-11 28.5q18 23 43.5 64.5
t48 102t38.5 139t16 176.5z" />
    <glyph glyph-name="asterisk" unicode="*" horiz-adv-x="472" 
d="M250 511q-1 -8 -6.5 -11.5t-20.5 -0.5l-16 171q0 7 5.5 10.5t14 4t19 -2t19.5 -6.5zM433 565q7 -5 12 -14t6.5 -18t-1 -16.5t-9.5 -9.5l-166 -48q-17 22 2 32zM201 484q1 -13 -4 -19t-14 -2l-162 50q-1 12 3 22.5t10.5 17t13.5 9t13 -0.5zM248 412q-4 8 -0.5 13t17.5 10
l112 -144q5 -6 2.5 -13t-9.5 -12.5t-16.5 -10t-18.5 -5.5zM194 427q13 13 28 -6l-97 -156q-5 -8 -12.5 -7t-14.5 6.5t-13.5 13.5t-9.5 16z" />
    <glyph glyph-name="plus" unicode="+" 
d="M242 257v-137q0 -10 -10.5 -11.5t-39.5 -1.5v150h-150q0 28 1.5 39t11.5 11h137v136q0 11 11 12.5t39 1.5v-150h150q0 -29 -1.5 -39.5t-12.5 -10.5h-136z" />
    <glyph glyph-name="comma" unicode="," horiz-adv-x="180" 
d="M55 43q0 18 11 29.5t28 11.5q20 0 30.5 -10.5t10.5 -36.5q0 -24 -8 -49.5t-19 -47t-22.5 -35t-17.5 -13.5q-8 0 -14.5 4.5t-8.5 13.5q17 28 23 49t7 44q-20 12 -20 40z" />
    <glyph glyph-name="hyphen" unicode="-" horiz-adv-x="290" 
d="M43 257q0 28 1.5 39t11.5 11h191q0 -29 -1.5 -39.5t-12.5 -10.5h-190z" />
    <glyph glyph-name="period" unicode="." horiz-adv-x="180" 
d="M49 40q0 18 11 31.5t31 13.5q23 0 33.5 -12.5t10.5 -32.5q0 -19 -12 -32t-32 -13q-23 0 -32.5 12t-9.5 33z" />
    <glyph glyph-name="slash" unicode="/" horiz-adv-x="307" 
d="M72 -5q-2 -6 -5 -9t-9.5 -4.5t-17.5 -1.5h-30l226 768q2 6 4.5 9.5t8.5 5t17 2t31 0.5z" />
    <glyph glyph-name="zero" unicode="0" 
d="M36 296q0 148 43 226t142 78q97 0 136 -72t39 -219q0 -156 -40.5 -236.5t-141.5 -80.5q-98 0 -138 74.5t-40 229.5zM95 289q0 -133 28 -190t91 -57q69 0 97 66.5t28 203.5q0 120 -24 179t-91 59q-72 0 -100.5 -68.5t-28.5 -192.5z" />
    <glyph glyph-name="one" unicode="1" 
d="M78 519q-4 5 -6 17t-2 23q0 2 12 6t30 8.5t40 9.5t42 9t35 6.5t20 2.5t9.5 -1.5t6.5 -2.5l-12 -545h88h21t18 1q9 1 16 2q0 -23 -1 -39t-8 -16h-350q-1 7 -1 20.5v20.5q0 3 20 5.5t47 3.5t53 1.5t38 0.5l14 491q-8 -1 -28.5 -4t-43.5 -8q-26 -5 -58 -12z" />
    <glyph glyph-name="two" unicode="2" 
d="M65 508q-5 11 -6 22.5t-1 19.5q0 7 12.5 15.5t35.5 16t55 13t71 5.5q43 0 71 -8.5t44.5 -25.5t22.5 -41.5t6 -55.5q0 -58 -27.5 -108.5t-68.5 -100t-87.5 -100t-83.5 -108.5h185q11 0 28 0.5t34 1.5q19 1 40 2q0 -24 -1.5 -40t-8.5 -16h-346q-4 8 -4 21q0 16 5.5 25
l18.5 30q34 55 78 103.5l83.5 95t66.5 93t27 97.5q0 18 -4 33.5t-14 26t-28 16.5t-45 6q-52 0 -93.5 -11.5t-65.5 -27.5z" />
    <glyph glyph-name="three" unicode="3" 
d="M242 303q28 -3 54 -12t45.5 -26.5t31.5 -45t12 -66.5q0 -58 -16.5 -104.5t-46 -79.5t-71 -51t-91.5 -18q-57 0 -84 15t-27 29q0 16 2.5 25.5l4.5 17.5q20 -17 45 -25.5t61 -8.5q38 0 68.5 15.5t51.5 42.5t32.5 63.5t11.5 78.5q0 36 -14 58.5t-36.5 34.5t-52.5 16.5
t-61 5.5l-1 37q65 36 102.5 78t37.5 89q0 11 -3 24t-12.5 24.5t-27 19t-46.5 7.5q-53 0 -90 -10.5t-65 -29.5q-4 9 -5 21t-1 20t11.5 17.5t34 17t54 12.5t72.5 5q42 0 68.5 -9.5t42.5 -26t22 -37.5t6 -43q0 -30 -10.5 -56t-27 -48.5t-38.5 -41.5t-44 -35z" />
    <glyph glyph-name="four" unicode="4" 
d="M313 206h32t27 1q14 0 27 1q0 -2 1 -5t1 -16t-4 -23t-14 -10h-70v-134q0 -8 -0.5 -12t-5.5 -5.5t-16.5 -2t-32.5 -0.5v154h-205q-8 8 -11.5 20t-3.5 23q0 15 9.5 44t26 66t38 78t46.5 80t51 73t51 57q6 5 13 7t13 2q11 0 18.5 -2.5t11.5 -4.5zM258 206l9 323
q-23 -25 -50 -62.5t-52.5 -81t-46 -90t-30.5 -89.5h170z" />
    <glyph glyph-name="five" unicode="5" 
d="M382 600q0 -32 -5 -41t-26 -9h-14.5h-28t-36.5 0.5t-41 0.5q-48 0 -107 1l-19 -173q3 1 19.5 4t50.5 3q30 1 67 -5t69.5 -26t54 -58.5t21.5 -102.5q0 -67 -12.5 -121t-40 -92.5t-71.5 -59.5t-107 -21q-60 0 -88.5 15t-28.5 25q0 14 1.5 24.5t5.5 21.5q37 -34 108 -34
q49 0 82.5 18.5t54 50.5t29.5 75t9 91t-16.5 78t-42 46.5t-56.5 22t-61 5.5q-40 0 -68.5 -7l-36.5 -9l28 277h306z" />
    <glyph glyph-name="six" unicode="6" 
d="M268 649q-35 0 -66 -17.5t-54.5 -54.5t-38.5 -94t-18 -136q50 91 156 91q33 0 60.5 -11t47.5 -34.5t31.5 -60.5t11.5 -88q0 -124 -46.5 -188.5t-143.5 -64.5q-56 0 -89.5 22t-51.5 62.5t-23.5 96.5t-5.5 125q0 112 18 189.5t49.5 125t73.5 68.5t89 21q22 0 41.5 -1.5
t34.5 -5.5t24 -9.5t9 -13.5q0 -9 -1.5 -20t-3.5 -19q-21 8 -43.5 12.5t-60.5 4.5zM232 386q-88 0 -141 -99q-1 -55 4 -100t18 -77.5t36.5 -50t60.5 -17.5q65 0 99.5 52.5t34.5 136.5q0 79 -29 117t-83 38z" />
    <glyph glyph-name="seven" unicode="7" 
d="M412 600q-45 -74 -86.5 -152.5t-76.5 -164t-63 -177.5t-46 -191q-25 0 -40.5 2.5t-15.5 11.5q19 98 48 190.5t62.5 173t68.5 147t67 111.5q-8 0 -31.5 -0.5t-58.5 -1t-79 -0.5h-92q-10 0 -13.5 15t-3.5 36h360z" />
    <glyph glyph-name="eight" unicode="8" 
d="M219 706q30 0 60.5 -6t56 -23.5t41.5 -49t16 -82.5q0 -33 -10.5 -59.5t-28 -47.5t-39 -37t-42.5 -29q35 -22 62 -45q29 -27 47 -61t18 -85q0 -84 -43.5 -136.5t-130.5 -52.5q-49 0 -84 14t-57.5 39.5t-33.5 60t-11 75.5q0 33 10 63t27.5 55.5t40 45t48.5 32.5l-34.5 21.5
t-29.5 22.5q-29 21 -42 52t-13 64q0 43 14 75t37.5 53t54.5 31t66 10zM288 301q-14 13 -31.5 24.5t-37.5 22.5q-26 -10 -49 -26t-40.5 -37t-27.5 -47t-10 -54q0 -62 33 -101t98 -39q60 0 92 37.5t32 99.5q0 46 -18 73t-41 47zM224 654q-24 0 -46.5 -6.5t-39.5 -20.5
t-27 -35.5t-10 -51.5q0 -29 13 -53.5t42 -44.5q11 -9 29 -19.5l39 -22.5q23 11 44.5 25.5t37.5 32.5t25.5 39.5t9.5 45.5q0 34 -11 55.5t-28 34t-38 17t-40 4.5z" />
    <glyph glyph-name="nine" unicode="9" 
d="M139 -51q50 0 86.5 20.5t61.5 59.5t38 94.5t17 126.5q-24 -44 -61 -67.5t-91 -23.5q-33 0 -61 12t-48.5 36.5t-32.5 61.5t-12 87q0 128 46.5 191t143.5 63q53 0 86 -17.5t51.5 -55t25 -95t7.5 -137.5q-1 -209 -63.5 -308.5t-188.5 -99.5q-34 0 -59 5t-25 19q0 9 1 20.5
t3 16.5q20 -5 38 -7t37 -2zM205 211q41 0 76.5 25.5t62.5 73.5v2q0 54 -4 99t-16 78t-35 51.5t-62 18.5q-66 0 -101.5 -48t-35.5 -146q0 -79 31.5 -116.5t83.5 -37.5z" />
    <glyph glyph-name="colon" unicode=":" horiz-adv-x="180" 
d="M49 386q0 18 11 31.5t31 13.5q23 0 33.5 -12.5t10.5 -32.5q0 -19 -12 -32t-32 -13q-23 0 -32.5 12.5t-9.5 32.5zM49 40q0 18 11 31.5t31 13.5q23 0 33.5 -12.5t10.5 -32.5q0 -19 -12 -32t-32 -13q-23 0 -32.5 12t-9.5 33z" />
    <glyph glyph-name="semicolon" unicode=";" horiz-adv-x="180" 
d="M50 386q0 18 11 31.5t31 13.5q23 0 33.5 -12.5t10.5 -32.5q0 -19 -12 -32t-32 -13q-23 0 -32.5 12.5t-9.5 32.5zM52 43q0 18 11 29.5t29 11.5q19 0 30 -10.5t11 -36.5q0 -24 -8 -49.5t-19.5 -47t-23 -35t-17.5 -13.5q-8 0 -14.5 4.5t-8.5 13.5q17 28 23 49t7 44
q-20 12 -20 40z" />
    <glyph glyph-name="equal" unicode="=" 
d="M42 344q0 28 1.5 39t11.5 11h337q0 -29 -1.5 -39.5t-12.5 -10.5h-336zM42 170q0 28 1.5 39t11.5 11h337q0 -29 -1.5 -39.5t-12.5 -10.5h-336z" />
    <glyph glyph-name="question" unicode="?" horiz-adv-x="295" 
d="M87 40q0 18 11 31.5t31 13.5q23 0 33.5 -12.5t10.5 -32.5q0 -19 -12 -32t-32 -13q-23 0 -32.5 12t-9.5 33zM143 710q27 0 52.5 -7t45 -23.5t31 -44t11.5 -67.5q0 -44 -13.5 -78t-32 -62.5t-38.5 -52.5t-33 -47q-11 -18 -15 -35.5t-4 -32.5q0 -23 4.5 -38.5t1.5 -18.5
q-5 -7 -21.5 -7.5t-28.5 1.5q-3 7 -6 17q-5 18 -5 44q0 19 4.5 41t18.5 46q15 27 34 51.5t35.5 49.5t28 52.5t11.5 60.5q0 32 -9.5 51t-24 29t-31.5 13t-31 3q-32 0 -56.5 -9t-39.5 -21q-7 17 -7 44q0 7 10 14t26.5 13t37.5 10t44 4z" />
    <glyph glyph-name="at" unicode="@" horiz-adv-x="754" 
d="M648 344q0 78 -13 133.5t-42.5 90.5t-76 51t-113.5 16q-68 0 -123 -19t-93 -63t-58.5 -116.5t-20.5 -178.5q0 -130 20 -207.5t56.5 -119t87 -54.5t111.5 -13q86 0 140.5 16.5t93.5 35.5q5 -8 10 -19.5t5 -22.5q0 -8 -17 -18.5t-49 -20.5t-77 -17t-101 -7q-46 0 -88.5 4.5
t-80 20t-68 45.5t-52.5 80.5t-34 124.5t-12 178q0 115 25.5 195t72 130t111 73t142.5 23q75 0 131.5 -18.5t93.5 -58t55.5 -102.5t18.5 -152q0 -83 -9 -141t-23 -97t-32 -62t-35.5 -34.5t-33.5 -14.5t-27 -3q-20 0 -36 7t-27 18q-12 -8 -39.5 -17t-71.5 -9q-27 0 -50.5 5
t-40.5 21t-26.5 45.5t-8.5 79.5q1 48 13 79t32.5 49t47.5 25t57 7q16 0 31.5 -1.5t29.5 -6.5q1 11 1 22v20t1 21q1 48 -21 63t-59 15q-34 0 -59 -5.5t-48 -18.5q-4 8 -5 17t-1 14q0 11 9 17q15 10 44.5 17t77.5 7q57 0 86 -25.5t27 -92.5l-6 -215q-2 -35 -2.5 -58.5
t-2.5 -38.5q19 -12 42 -12q12 0 30.5 10.5t36 42t30.5 89t13 151.5zM453 267q-10 2 -23.5 3.5t-25.5 1.5q-23 0 -42.5 -5.5t-34 -19t-23 -37.5t-9.5 -60q-1 -34 4.5 -55t16.5 -32t26 -15t33 -4q25 0 48 11t24 33z" />
    <glyph glyph-name="A" unicode="A" horiz-adv-x="436" 
d="M322 193h-208l-46 -182q-2 -8 -7 -10t-20 -2h-14t-20 2l189 694q1 9 19 9q15 0 24 -3l189 -688q2 -8 -2.5 -11t-20.5 -3h-13.5t-19.5 1zM127 244h181l-48 185q-8 29 -15 58.5t-12.5 55.5t-9.5 47t-5 35q-2 -14 -5.5 -35t-9.5 -47l-13 -55.5t-15 -58.5z" />
    <glyph glyph-name="B" unicode="B" horiz-adv-x="392" 
d="M55 683q0 8 4.5 12.5t20.5 4.5h100q28 0 58 -6t54 -22.5t39.5 -46t15.5 -77.5q0 -44 -9.5 -74t-24.5 -49t-32 -28t-32 -11q16 -1 36.5 -7t39 -22t31.5 -44t13 -74q0 -75 -19.5 -121.5t-48 -72.5t-62.5 -35.5t-62 -9.5h-122v683zM110 405h75q43 0 73 29.5t30 103.5
q0 34 -9.5 56t-24.5 35t-34 17.5t-39 4.5h-71v-246zM110 50h67q25 0 48 9t41 30t29 56.5t11 88.5q0 43 -10 67.5t-27 37t-41 15.5t-51 3h-67v-307z" />
    <glyph glyph-name="C" unicode="C" horiz-adv-x="353" 
d="M233 708q49 0 71 -17.5t22 -32.5q0 -10 -3 -19t-7 -15q-3 3 -10 8t-16.5 10t-22 9t-26.5 4q-26 0 -52 -11t-46.5 -45.5t-33.5 -102t-13 -180.5q0 -86 10 -138.5t26.5 -81t38 -36.5t44.5 -8q35 0 63 14.5t41 29.5q4 -7 7 -16t3 -19q0 -12 -9.5 -24t-26 -22t-39 -16.5
t-49.5 -6.5q-30 0 -60 7.5t-53.5 40.5t-38 98.5t-14.5 178.5q0 132 18 210t46 117.5t62.5 51.5t67.5 12z" />
    <glyph glyph-name="D" unicode="D" horiz-adv-x="414" 
d="M181 700q48 0 84.5 -16.5t60.5 -53t36.5 -96.5t12.5 -147q0 -118 -15 -193.5t-41.5 -118.5t-63 -59t-78.5 -16h-121v683q0 8 5 12.5t20 4.5h100zM315 391q0 72 -8 121t-25 79.5t-42.5 44t-59.5 13.5h-69v-596h67q26 0 51 11t44 47t30.5 102.5t11.5 177.5z" />
    <glyph glyph-name="E" unicode="E" horiz-adv-x="337" 
d="M308 51q0 -35 -1.5 -43t-10.5 -8h-239v686q0 3 2 7q2 2 4 4.5t7 2.5h239q0 -34 -1 -42.5t-9 -8.5h-188v-241h176q0 -32 -1.5 -41.5t-10.5 -9.5h-164v-306h197z" />
    <glyph glyph-name="F" unicode="F" horiz-adv-x="327" 
d="M57 0v686q0 3 2 7q2 2 4 4.5t7 2.5h239q0 -34 -1 -41.5t-9 -7.5h-188v-242h176q0 -32 -1.5 -42t-10.5 -10h-164v-344q0 -4 -1 -7q-2 -6 -11 -6h-42z" />
    <glyph glyph-name="G" unicode="G" horiz-adv-x="399" 
d="M247 710q46 0 75.5 -14t29.5 -32q0 -16 -8 -34q-16 12 -37 19.5t-50 7.5q-39 0 -69.5 -14t-51 -49.5t-31.5 -96.5t-11 -155q0 -99 10 -158t27.5 -90t41.5 -40.5t52 -9.5q36 0 56.5 14t25.5 24v269h-98v34q0 13 15 13h135v-352q-6 -6 -16.5 -15.5t-27 -18.5t-39.5 -15.5
t-53 -6.5q-44 0 -79 13.5t-59 51.5t-36.5 106t-12.5 178q0 115 15 187.5t43 113t67 55.5t86 15z" />
    <glyph glyph-name="H" unicode="H" 
d="M322 355h-212v-342q0 -5 -1 -7.5t-6 -4t-16 -1.5h-32v686q0 5 1 8t6 4.5t16 1.5h32v-293h212v279q0 5 0.5 7.5t6 4t16.5 2t32 0.5v-687q0 -5 -1 -7.5t-6 -4t-16 -1.5h-32v355z" />
    <glyph glyph-name="I" unicode="I" horiz-adv-x="165" 
d="M54 672q0 10 1 16t6.5 8.5t17 3t31.5 0.5v-687q0 -5 -1 -7.5t-6.5 -4t-16.5 -1.5h-32v672z" />
    <glyph glyph-name="J" unicode="J" horiz-adv-x="302" 
d="M192 673q0 10 1 15.5t6 8t16 3t32 0.5v-532q0 -33 -4 -65t-17.5 -57t-38 -40.5t-66.5 -15.5q-51 0 -75.5 17t-24.5 36q0 11 3 19.5t7 14.5q14 -15 35.5 -25.5t48.5 -10.5t42.5 11t23 30.5t9.5 45.5t2 56v489z" />
    <glyph glyph-name="K" unicode="K" horiz-adv-x="393" 
d="M54 686q0 5 1 8t6 4.5t16 1.5h32v-305l201 302q10 2 18.5 2.5t16.5 0.5q33 0 21 -19l-201 -286q63 -41 115 -133.5t88 -245.5q2 -10 -2.5 -13.5t-18.5 -3.5h-17.5t-18.5 1q-20 69 -38.5 121t-37 91t-37.5 66.5t-40 48.5q-11 11 -23.5 18.5t-25.5 13.5v-346q0 -5 -1 -7.5
t-6 -4t-16 -1.5h-32v686z" />
    <glyph glyph-name="L" unicode="L" horiz-adv-x="329" 
d="M111 52h198v-39q0 -8 -3.5 -10.5t-10.5 -2.5h-240v680q0 7 1 11.5t6 6t16.5 2t32.5 0.5v-648z" />
    <glyph glyph-name="M" unicode="M" horiz-adv-x="498" 
d="M55 686q0 9 3.5 11.5t9.5 2.5h37l109 -351q2 -8 8 -28l12 -40l15 -52l15 51l11.5 39t7.5 27l105 340q2 5 4 9.5t10 4.5h42v-687q0 -5 -1 -7.5t-6 -4t-16.5 -1.5h-32.5l2 289l9 282l-75 -250l-58 -170q-3 -9 -11 -9h-26l-56 179q-2 4 -10 31.5l-19.5 65l-24 78.5l-21.5 71
q1 -18 2.5 -55.5t3 -79.5t3 -80t1.5 -56l1 -283q0 -5 -1 -7.5t-6.5 -4t-16.5 -1.5h-30v686z" />
    <glyph glyph-name="N" unicode="N" horiz-adv-x="456" 
d="M227 281l-11 26.5t-18.5 47.5l-23.5 61l-25.5 65.5l-24 62l-19.5 50.5q0 -19 0.5 -49.5t1 -66l1 -72.5t1 -68t0.5 -53v-27v-245q0 -5 -1 -7.5t-6 -4t-16 -1.5h-31v686q0 14 13 14h39l120 -276l11 -29l19.5 -50l24.5 -62.5l26 -66l24 -61t19 -47.5q-1 15 -2 44.5
t-1.5 65.5t-0.5 74t-0.5 71t-0.5 56.5v29.5v237q0 5 1 8t6 4.5t16.5 1.5h31.5v-687q0 -13 -13 -13h-38z" />
    <glyph glyph-name="O" unicode="O" horiz-adv-x="446" 
d="M38 355q0 97 12 165t36 110t60 61t84 19q49 0 83 -18t55 -59.5t30.5 -109t9.5 -167.5q0 -101 -11 -171t-34 -113.5t-59 -62.5t-85 -19q-48 0 -82.5 17t-56 59t-32 112.5t-10.5 176.5zM99 338q0 -80 6.5 -135t21 -90t38 -50.5t56.5 -15.5q34 0 58.5 16.5t40 53.5t22.5 96
t7 144q0 83 -6.5 139.5t-20.5 91.5t-37.5 50.5t-56.5 15.5t-57.5 -16.5t-40 -54t-23.5 -98t-8 -147.5z" />
    <glyph glyph-name="P" unicode="P" horiz-adv-x="370" 
d="M55 686q0 14 13 14h104q94 0 134.5 -51t40.5 -139q0 -57 -13 -97.5t-37 -66.5t-57 -38t-72 -12h-59v-283q0 -5 -1 -7.5t-6 -4t-16 -1.5h-31v686zM287 514q0 29 -5 54t-18 43t-34 28.5t-53 10.5h-68v-302h63q115 0 115 166z" />
    <glyph glyph-name="Q" unicode="Q" horiz-adv-x="446" 
d="M38 355q0 97 12 165t36 110t60 61t84 19q49 0 83 -18t55 -59.5t30.5 -109t9.5 -167.5q0 -88 -8 -152t-25.5 -107.5t-44 -67.5t-62.5 -33q8 -48 22 -65.5t39 -17.5q37 0 65 17q5 -6 7 -15t2 -15q0 -9 -8 -15t-20 -10.5t-27 -6.5t-29 -2q-45 0 -71.5 29t-41.5 95
q-45 2 -76.5 21t-52 61t-30 111t-9.5 172zM99 338q0 -80 6.5 -135t21 -90t38 -50.5t56.5 -15.5q34 0 58.5 16.5t40 53.5t22.5 96t7 144q0 83 -6.5 139.5t-20.5 91.5t-37.5 50.5t-56.5 15.5t-57.5 -16.5t-40 -54t-23.5 -98t-8 -147.5z" />
    <glyph glyph-name="R" unicode="R" horiz-adv-x="379" 
d="M55 686q0 3 2 7q2 2 4 4.5t7 2.5h104q94 0 134.5 -51t40.5 -139q0 -85 -27.5 -133t-75.5 -68q11 -14 26 -39.5t30 -62t27.5 -84.5t17.5 -108q1 -9 -3.5 -12t-23.5 -4h-13.5t-17.5 1q-7 68 -20 119t-27.5 87t-28 58t-21.5 33q-5 -1 -11 -1h-11h-59v-283q0 -5 -1 -7.5
t-6 -4t-16 -1.5h-31v686zM287 512q0 30 -5 55t-18 43.5t-34 29t-53 10.5h-68v-302h63q115 0 115 164z" />
    <glyph glyph-name="S" unicode="S" horiz-adv-x="369" 
d="M203 710q67 0 96.5 -13.5t29.5 -30.5q0 -18 -15 -33q-12 9 -39.5 18t-67.5 9q-52 0 -83 -23t-31 -61q0 -31 15.5 -56t39.5 -52l119 -123q42 -45 57 -84t15 -88q0 -39 -9.5 -72.5t-30.5 -58t-54 -38.5t-80 -14q-35 0 -59.5 5.5t-41 13.5t-24 17t-7.5 17q0 10 4 20.5
t12 18.5q16 -15 42.5 -25.5t69.5 -10.5q65 0 92.5 34t27.5 88q0 21 -3.5 39.5t-11.5 36.5t-21.5 36.5t-33.5 39.5l-108 113q-34 38 -51 71t-17 71q0 59 43.5 97t124.5 38z" />
    <glyph glyph-name="T" unicode="T" horiz-adv-x="367" 
d="M209 648v-635q0 -5 -1 -7.5t-6.5 -4t-16.5 -1.5h-31v648h-147v38q0 14 13 14h340v-39q0 -13 -13 -13h-138z" />
    <glyph glyph-name="U" unicode="U" horiz-adv-x="458" 
d="M111 213q0 -35 4 -66.5t16.5 -54.5t37.5 -36.5t67 -13.5q34 0 65.5 6.5t46.5 14.5v624q0 5 1 7.5t6.5 4t17 1.5h31.5v-675q-20 -13 -66.5 -24t-101.5 -11q-62 0 -97.5 18.5t-54.5 49t-24 71.5t-5 86v471q0 5 1 8t6 4.5t16.5 1.5h32.5v-487z" />
    <glyph glyph-name="V" unicode="V" horiz-adv-x="421" 
d="M7 681q-2 10 -1 14.5t12 4.5h44l111 -438q14 -61 24 -113.5t18 -98.5l16.5 98.5t22.5 113.5l101 418q2 10 4.5 15t11.5 5h45l-171 -706l-18.5 -2t-24.5 -1q-13 0 -21 16.5t-15 42.5l-19.5 74.5l-24 94l-26 104.5l-26.5 105z" />
    <glyph glyph-name="W" unicode="W" horiz-adv-x="643" 
d="M6 681q-2 8 -0.5 13.5t12.5 5.5h44l92 -439q6 -31 10 -56.5l7.5 -48.5l6.5 -44.5l6 -44.5h4q4 52 11 98.5t16 95.5l77 383q2 9 4.5 14t11.5 5h39l88 -402q6 -31 10.5 -56.5t7.5 -48l6 -44l6 -44.5h4l11 90.5t16 102.5l82 419q2 10 4.5 15t11.5 5h45l-141 -706
q-12 -2 -19.5 -2.5t-23.5 -0.5q-11 0 -18 14t-12 37l-75 324q-3 12 -6.5 35l-8 50.5t-8.5 55.5l-7 49l-28 -189l-78 -373q-10 -1 -19.5 -1.5t-26.5 -0.5q-10 0 -17 16t-13 44l-16.5 76l-20 94l-22 103.5l-21.5 104.5z" />
    <glyph glyph-name="X" unicode="X" horiz-adv-x="426" 
d="M252 363l162 -352q5 -11 -8 -11h-57l-68 150l-21.5 49.5l-19.5 46l-16.5 39.5l-12.5 30q-9 -23 -28.5 -68.5l-42.5 -95.5l-68 -144q-4 -7 -14 -7h-48l168 363l-141 327q-2 4 -1.5 6t6.5 3t19.5 1h38.5l51 -121l21 -51l19 -47.5l16 -41l11 -29.5q4 11 11.5 29l16.5 40.5
l19.5 48l21.5 51.5l48 111q1 4 2.5 6t7.5 3t17.5 1h34.5z" />
    <glyph glyph-name="Y" unicode="Y" horiz-adv-x="361" 
d="M155 284l-149 407q-1 3 -0.5 5t6.5 3t19 1h37l48 -143q10 -28 21.5 -63.5t21 -68l16.5 -57.5t9 -33q1 8 8 33l17 58l21.5 68l21.5 64l44 132q1 4 2.5 6t7.5 3t17.5 1h32.5l-146 -414v-273q0 -5 -0.5 -7.5t-6 -4t-16.5 -1.5h-32v284z" />
    <glyph glyph-name="Z" unicode="Z" horiz-adv-x="393" 
d="M50 686q0 14 14 14h298q6 -8 6 -19q0 -13 -6 -28l-278 -603h225q16 0 29.5 1t23.5 5v-43q0 -13 -13 -13h-317q-9 7 -9 22q0 14 5 27l275 601h-212q-31 0 -41 -2v38z" />
    <glyph glyph-name="bracketleft" unicode="[" horiz-adv-x="415" 
d="M405 821q0 -33 -3 -41.5t-20 -8.5h-178v-917h200q0 -20 -1 -30.5t-4 -15t-7.5 -5.5t-11.5 -1h-231v999q0 13 7 16.5t36 3.5h213z" />
    <glyph glyph-name="backslash" unicode="\" horiz-adv-x="303" 
d="M292 -15q3 -11 -6.5 -13t-46.5 -2l-228 778q-3 12 5.5 14.5t47.5 2.5z" />
    <glyph glyph-name="bracketright" unicode="]" horiz-adv-x="415" 
d="M10 -200q0 33 3 41.5t20 8.5h178v920h-200q0 19 1 30t4 15.5t7.5 5.5t11.5 1h231v-1002q0 -13 -7 -16.5t-37 -3.5h-212z" />
    <glyph glyph-name="underscore" unicode="_" horiz-adv-x="383" 
d="M16 -94q0 29 1.5 39.5t12.5 10.5h336q0 -28 -1.5 -39t-11.5 -11h-337z" />
    <glyph glyph-name="grave" unicode="`" horiz-adv-x="162" 
d="M141 583q-2 0 -22.5 15l-46 34l-47.5 36t-25 21q1 5 3 12.5t5.5 14t8 11.5t9.5 5q1 0 10.5 -7.5l24 -19t31 -26l31.5 -27.5t25.5 -23t13.5 -14q-3 -9 -7 -16q-3 -6 -6.5 -11t-7.5 -5z" />
    <glyph glyph-name="a" unicode="a" horiz-adv-x="367" 
d="M36 464q0 14 8 20q15 9 58.5 17.5t98.5 8.5q60 0 90 -26.5t30 -94.5v-60q0 -86 -1.5 -165t-3.5 -138q-17 -11 -50 -23.5t-86 -12.5q-27 0 -53 4t-46 19t-32.5 45t-12.5 81q0 53 12.5 85t33.5 49.5t48 23t55 5.5q20 0 42.5 -2.5t39.5 -9.5v88q0 24 -5.5 39.5t-16 24.5
t-25 12t-32.5 3q-48 0 -86 -8t-58 -17q-8 16 -8 32zM267 249q-14 5 -32.5 7.5t-32.5 2.5q-21 0 -41 -3.5t-35 -15.5t-24 -35.5t-9 -63.5q0 -36 7.5 -56.5t20.5 -31t30.5 -13t36.5 -2.5q24 0 45 7t29 15q1 16 2 38t1.5 47.5l1 52.5t0.5 51z" />
    <glyph glyph-name="b" unicode="b" horiz-adv-x="401" 
d="M58 708q0 20 11 23.5t44 3.5v-266q23 19 52.5 30t71.5 11q30 0 54.5 -10t41.5 -32.5t26 -59t9 -90.5q0 -110 -19 -175t-48 -99t-63 -44t-65 -10q-77 0 -115 30v688zM113 58q8 -7 24 -12.5t43 -5.5q18 0 40.5 8.5t42 36t32.5 79.5t13 139q0 45 -6 75t-17.5 48t-29.5 25.5
t-42 7.5q-29 0 -54 -9t-46 -30v-362z" />
    <glyph glyph-name="c" unicode="c" horiz-adv-x="331" 
d="M304 470q0 -6 -1.5 -15t-5.5 -18q-12 8 -32 15.5t-46 7.5q-20 0 -42 -6.5t-40 -30t-29.5 -68t-11.5 -119.5q0 -61 7.5 -99.5t22 -60t34.5 -29t45 -7.5q31 0 55 9.5t37 20.5q7 -17 7 -32q0 -17 -31.5 -32.5t-82.5 -15.5q-34 0 -61.5 8.5t-47 35t-30.5 75.5t-11 130
q0 90 16.5 143.5t43 82t58.5 37t62 8.5q35 0 59.5 -11.5t24.5 -28.5z" />
    <glyph glyph-name="d" unicode="d" horiz-adv-x="402" 
d="M289 441q-14 11 -28.5 15.5t-37.5 4.5q-25 0 -47 -11.5t-39 -37.5t-27 -68t-10 -103q0 -66 8 -106t22 -61t34 -27.5t44 -6.5q23 0 44 4.5t38 15.5zM289 708q0 20 11.5 23.5t44.5 3.5v-715q-25 -13 -61 -21.5t-81 -8.5q-33 0 -62.5 7.5t-51.5 33t-35 74t-13 131.5
q0 72 13 124t35.5 85t53 49t64.5 16q51 0 82 -22v220z" />
    <glyph glyph-name="e" unicode="e" horiz-adv-x="375" 
d="M217 510q66 0 96 -41.5t30 -116.5q0 -32 -2.5 -63.5t-7.5 -56.5q-32 -6 -67 -10t-67.5 -5.5t-60.5 -2t-44 -0.5q0 -55 8.5 -88.5t23.5 -51.5t36.5 -24t48.5 -6q34 0 65.5 8.5t54.5 25.5q4 -10 5.5 -20.5t1.5 -18.5q0 -9 -11 -18t-29.5 -15.5t-43.5 -11t-52 -4.5
q-36 0 -66 8t-51.5 33t-34 71t-12.5 121q0 96 16.5 153t42 87t57.5 38.5t63 8.5zM212 460q-19 0 -39 -6.5t-36.5 -27.5t-27.5 -60.5t-14 -105.5h38.5t50.5 1.5t53.5 4.5t47.5 8q2 18 3 34.5t1 32.5q-1 60 -16.5 89.5t-60.5 29.5z" />
    <glyph glyph-name="f" unicode="f" horiz-adv-x="248" 
d="M15 452v26.5t1.5 14.5t4.5 6t9 1h61v63q0 58 15.5 93t39 53.5t52.5 24t56 5.5q45 0 65.5 -9t20.5 -22q0 -8 -2 -15.5l-4 -15.5q-19 7 -36.5 9.5t-37.5 2.5q-21 0 -41 -3.5t-36.5 -16t-26.5 -37.5t-10 -67v-65h104q0 -17 -0.5 -26.5t-2 -14.5t-4 -6t-7.5 -1h-90v-439
q0 -3 -2.5 -8t-11.5 -5h-41v452h-76z" />
    <glyph glyph-name="g" unicode="g" horiz-adv-x="403" 
d="M214 510q8 0 20.5 -1.5t24.5 -4.5h124q2 -4 4 -10t2 -16q0 -22 -23 -22q-11 0 -25.5 1.5t-28.5 4.5q26 -17 40.5 -47.5t14.5 -76.5q0 -39 -9 -72.5t-28.5 -58t-50.5 -39t-74 -14.5q-35 0 -57 7q-16 -13 -29 -29.5t-13 -27.5q0 -8 11 -13.5t30.5 -10.5t46 -9t57.5 -8
q28 -4 52.5 -10.5t42.5 -18.5t28.5 -31.5t10.5 -49.5q0 -29 -11.5 -56t-35.5 -48t-60.5 -33.5t-86.5 -12.5t-81 9t-48 24t-23 34t-6 39q0 37 25 70t57 56q-31 9 -49 22t-17 31q0 20 18.5 44t44.5 44q-37 23 -50 64t-13 89q0 47 12.5 81t35 56.5t52.5 33t65 10.5zM212 467
q-44 0 -75 -32.5t-31 -104.5q0 -27 3.5 -51t14.5 -42t31.5 -28t53.5 -10q27 0 46 11.5t32 31.5t19 47.5t6 59.5q0 62 -26 90t-74 28zM217 19q-15 2 -29 3.5t-27 3.5q-27 -19 -49.5 -48t-22.5 -58q0 -14 4 -26t15.5 -21t32.5 -14t55 -5t59 8t41.5 21.5t24.5 29.5t8 33
q0 41 -29 54.5t-83 18.5z" />
    <glyph glyph-name="h" unicode="h" horiz-adv-x="396" 
d="M54 708q0 20 11 23.5t44 3.5v-268q29 23 62.5 33t64.5 10q36 0 58 -9.5t35 -26.5t17.5 -42t4.5 -56v-363q0 -5 -1.5 -7.5t-7 -4t-16.5 -1.5h-31v364q0 21 -3 38t-12 29.5t-24.5 19.5t-40.5 7q-23 0 -52.5 -8.5t-53.5 -31.5v-405q0 -5 -1 -7.5t-6 -4t-16 -1.5h-32v708z
" />
    <glyph glyph-name="i" unicode="i" horiz-adv-x="171" 
d="M114 13q0 -5 -1 -7.5t-6.5 -4t-17 -1.5h-32.5v473q0 20 12 23.5t45 3.5v-487zM55 669q0 46 33 46q17 0 24 -11t7 -34q-2 -47 -34 -47q-15 0 -23 10.5t-7 35.5z" />
    <glyph glyph-name="j" unicode="j" horiz-adv-x="182" 
d="M119 -37q0 -34 -5 -63t-18.5 -50t-37.5 -33t-62 -12q-54 0 -81.5 14t-27.5 32q0 19 9 31q17 -11 40.5 -18.5t55.5 -7.5q24 0 38 7.5t21.5 22.5t10 37t2.5 51v499q0 20 11 23.5t44 3.5v-537zM62 669q0 46 33 46q17 0 24 -11t7 -34q-2 -47 -34 -47q-15 0 -23 10.5t-7 35.5z
" />
    <glyph glyph-name="k" unicode="k" horiz-adv-x="392" 
d="M57 708q0 20 11 23.5t44 3.5v-286q30 30 69.5 45.5t71.5 15.5q49 0 68.5 -24t19.5 -64q0 -34 -13 -60.5t-30 -46t-34.5 -32t-27.5 -18.5q16 -3 35.5 -13t36.5 -28t30.5 -45.5t19.5 -65.5q3 -21 3 -46t-3 -53q-1 -5 -2 -8t-7 -4.5t-18.5 -1.5h-34.5q2 17 3 32.5t1 29.5
q0 47 -9 79q-9 31 -24 50t-31.5 29t-34 11.5t-30.5 -1.5q-8 -2 -18 -5.5t-19 -7.5q-11 -4 -22 -9v-195q0 -5 -0.5 -7.5t-5.5 -4t-16.5 -1.5h-32.5v708zM281 408q0 51 -51 51q-28 0 -58.5 -14.5t-59.5 -49.5v-144q35 12 66 27.5t54 34.5t36 42.5t13 52.5z" />
    <glyph glyph-name="l" unicode="l" horiz-adv-x="170" 
d="M112 13q0 -5 -1 -7.5t-6.5 -4t-16.5 -1.5h-31v708q0 20 11 23.5t44 3.5v-722z" />
    <glyph glyph-name="m" unicode="m" horiz-adv-x="592" 
d="M272 391q-1 18 -3.5 31t-10 21.5t-20.5 13t-34 4.5q-22 0 -44 -5t-48 -17v-426q0 -5 -1.5 -7.5t-6.5 -4t-16.5 -1.5h-30.5v477q36 16 73.5 24.5t74.5 8.5t60 -9.5t36 -26.5q27 17 61 26.5t66 9.5q37 0 59 -9.5t34 -28t15.5 -45.5t3.5 -62v-352q0 -5 -1 -7.5t-6.5 -4
t-16.5 -1.5h-31v368q0 49 -12 70.5t-54 21.5q-22 0 -45 -5.5t-47 -21.5v-420q0 -9 -5 -11h-1q-5 -2 -16 -2h-33v391z" />
    <glyph glyph-name="n" unicode="n" horiz-adv-x="401" 
d="M55 475q35 15 77.5 25t84.5 10q40 0 66.5 -8t42.5 -25t22 -43t6 -61v-360q0 -5 -1 -7.5t-6.5 -4t-16.5 -1.5h-32v358q0 27 -3.5 46.5t-12.5 32t-25 18.5t-42 6q-22 0 -52 -5.5t-53 -17.5v-425q0 -5 -1 -7.5t-6.5 -4t-16.5 -1.5h-31v475z" />
    <glyph glyph-name="o" unicode="o" horiz-adv-x="383" 
d="M31 249q0 139 44.5 200t122.5 61q39 0 68 -12t48.5 -41.5t29 -79.5t9.5 -127q0 -135 -43 -197.5t-123 -62.5q-36 0 -65 8.5t-49.5 36t-31 78.5t-10.5 136zM90 245q0 -65 6.5 -105.5t19.5 -63t31 -30.5t42 -8t43 11.5t33 37t21.5 66t7.5 99.5q0 65 -6.5 105.5t-19 63.5
t-30.5 31.5t-42 8.5t-43.5 -10t-33.5 -35t-21.5 -66.5t-7.5 -104.5z" />
    <glyph glyph-name="p" unicode="p" horiz-adv-x="400" 
d="M57 470q65 40 144 40q38 0 68.5 -10t52 -34t33 -65t11.5 -102q0 -102 -16.5 -163t-41.5 -93.5t-53.5 -42.5t-52.5 -10q-32 0 -55.5 11t-34.5 25v-219q-7 -2 -14.5 -3t-14.5 -1q-14 0 -20 4.5t-6 18.5v644zM112 86q14 -23 34 -34.5t41 -11.5q15 0 35.5 7.5t39 33
t31.5 74.5t13 133q0 52 -7 85.5t-20.5 53t-33.5 27t-47 7.5q-49 0 -86 -25v-350z" />
    <glyph glyph-name="q" unicode="q" horiz-adv-x="408" 
d="M351 -174q0 -16 -5.5 -20t-28.5 -4q-6 0 -11.5 0.5t-10.5 0.5v240q-36 -53 -112 -53q-23 0 -48 7.5t-46 32t-35 70t-14 121.5q0 77 15 132t42 90t64 51t81 16q35 0 60.5 -7.5t48.5 -23.5v-653zM295 443q-9 8 -26.5 13t-38.5 5q-62 0 -96 -56.5t-34 -184.5q0 -60 10 -95.5
t25 -54.5t33 -24.5t34 -5.5q26 -1 52.5 14t40.5 49v340z" />
    <glyph glyph-name="r" unicode="r" horiz-adv-x="275" 
d="M55 466q32 22 66.5 33t67.5 11q37 0 54.5 -9.5t17.5 -25.5q0 -7 -2 -16t-6 -17q-11 6 -25 10.5t-31 4.5q-49 0 -86 -28v-416q0 -5 -1 -7.5t-6.5 -4t-17 -1.5h-31.5v466z" />
    <glyph glyph-name="s" unicode="s" horiz-adv-x="368" 
d="M204 510q35 0 59.5 -5.5t39.5 -13.5t21.5 -16.5t6.5 -14.5q0 -15 -13 -31q-26 17 -51.5 24.5t-57.5 7.5q-46 0 -75.5 -16.5t-29.5 -48.5q0 -17 9 -33t40 -37l108 -77q35 -29 51.5 -57.5t16.5 -66.5q0 -66 -43.5 -100.5t-120.5 -34.5q-58 0 -92 12.5t-34 30.5t12 34
q23 -14 48.5 -20t60.5 -6q50 0 79 18.5t29 58.5q0 29 -13 51.5t-43 45.5l-105 76q-41 28 -53.5 53t-12.5 52q0 53 43.5 83.5t119.5 30.5z" />
    <glyph glyph-name="t" unicode="t" horiz-adv-x="298" 
d="M101 451h-74q0 33 2 41t11 8h61v158q0 17 10 19.5t45 2.5v-180h121q0 -33 -2 -41t-10 -8h-109v-307q0 -22 1 -41t5.5 -33.5t13.5 -22.5t26 -8q21 0 34.5 4t30.5 12q2 -6 3 -13.5t1 -15.5q0 -10 -7 -16.5t-18.5 -11t-26 -6.5t-29.5 -2q-31 0 -49 11.5t-27 32t-11 49
t-2 62.5v306z" />
    <glyph glyph-name="u" unicode="u" horiz-adv-x="416" 
d="M357 25q-33 -17 -73.5 -26t-78.5 -9q-44 0 -72.5 10t-45 32t-23 55.5t-6.5 81.5v317q0 5 0.5 8t6 4.5t17 1.5h32.5v-338q0 -35 4 -58.5t14.5 -38t29.5 -20.5t48 -6q17 0 43 4.5t49 18.5v424q0 5 1 8t6.5 4.5t16.5 1.5h31v-475z" />
    <glyph glyph-name="v" unicode="v" horiz-adv-x="356" 
d="M26 482q-2 7 -1.5 10.5t6 5t18 2t33.5 0.5l43 -174l21.5 -92l18.5 -85l17 -87h1q7 42 16 87q8 38 17 85.5t20 92.5l39 159q1 5 2.5 8t7 4.5t16.5 1.5h31l-128 -506q-6 -1 -18.5 -1.5t-18.5 -0.5q-8 0 -13.5 13.5t-11.5 36.5z" />
    <glyph glyph-name="w" unicode="w" horiz-adv-x="553" 
d="M24 486q-1 5 0 8t6.5 4.5t18 1.5h33.5l40 -182q10 -48 18 -92t15 -79q7 -41 14 -78h3q3 15 7.5 40.5t10.5 55.5l12.5 61.5l12.5 59.5l35 183q1 8 4.5 11t14.5 3h36l43 -199l17.5 -77t14.5 -69l13 -69h4q2 19 6 48t10 62.5l12.5 69.5t13.5 69l34 168q1 5 2.5 8t7 4.5
t16 1.5h30.5l-56 -253l-21 -93.5l-18 -81t-13.5 -57l-5.5 -21.5q-5 -1 -10 -1q-5 -1 -11 -1h-13q-6 0 -15 14.5t-15 40.5l-16 69q-10 41 -19 82l-16.5 78l-13.5 67.5t-9 51.5q-3 -21 -8.5 -52l-12 -68t-15 -78t-18.5 -82l-27 -121q-8 -1 -16 -1q-7 -1 -14.5 -1h-12.5
q-7 0 -13 13.5t-11 35.5l-13.5 55.5l-16 67.5l-17.5 73.5l-17 73.5z" />
    <glyph glyph-name="x" unicode="x" horiz-adv-x="437" 
d="M255 266l156 -252q3 -5 3.5 -8t-5 -4.5t-19.5 -1.5h-39l-52 80l-24.5 40l-24 41l-20.5 36.5t-15 26.5q-5 -10 -14.5 -26.5l-20.5 -36l-23.5 -41l-24.5 -41.5l-45 -68q-2 -4 -5 -6.5t-9.5 -3.5t-18.5 -1h-32l162 262l-139 228q-2 3 -1.5 5t6 3t18 1.5t35.5 0.5l51 -80
l19.5 -33.5l20 -34l17 -30t11.5 -21.5l11.5 21t17.5 30.5l20.5 34.5l20.5 35l45 68q2 4 3.5 6t7.5 3t18 1h34z" />
    <glyph glyph-name="y" unicode="y" horiz-adv-x="370" 
d="M33 483q-2 6 -1.5 9.5t5.5 5t16.5 2t32.5 0.5l75 -294q6 -26 11 -51.5t8.5 -47.5l6 -37t3.5 -19q0 3 2.5 18l6 36.5l8 48t10.5 53.5l67 276q1 6 2.5 9.5t7 5t17 2t32.5 0.5l-132 -531q-11 -46 -24.5 -77t-30.5 -50t-37 -27t-45 -8q-36 0 -54.5 8t-18.5 22q0 8 3 17.5
t7 14.5q12 -6 29.5 -10t31.5 -4q28 0 51.5 28t39.5 101z" />
    <glyph glyph-name="z" unicode="z" horiz-adv-x="364" 
d="M328 500q1 -2 3 -5q1 -2 2 -5t1 -8t-1 -12.5t-6 -16.5l-233 -401h116q48 0 76 2t45 6q1 -5 1 -13v-13q0 -17 -4 -25.5t-17 -8.5h-272q-3 3 -5 7q-5 8 -5 21q0 11 6 22l235 402h-121q-37 0 -66 -1.5t-47 -3.5q-2 10 -2 16.5v10.5q0 26 18 26h276z" />
    <glyph glyph-name="bar" unicode="|" horiz-adv-x="354" 
d="M204 -185q0 -6 -1.5 -9t-7 -4.5t-16.5 -1.5h-30v998q0 6 1.5 9.5t6.5 5t16 2t31 0.5v-1000z" />
    <glyph glyph-name="exclamdown" unicode="&#xa1;" horiz-adv-x="189" 
d="M140 463q0 -18 -11 -31.5t-31 -13.5q-23 0 -33.5 12.5t-10.5 32.5t12 32.5t32 12.5q23 0 32.5 -12t9.5 -33zM131 -182q0 -11 -14.5 -13.5t-56.5 -2.5l9 489q1 17 13 21.5t41 4.5z" />
    <glyph glyph-name="cent" unicode="&#xa2;" 
d="M283 508q28 -2 50 -12t22 -19q0 -5 -1 -18t-6 -23q-14 9 -30 15.5t-42 6.5q-23 0 -45.5 -7t-41.5 -31.5t-30.5 -70.5t-11.5 -124q0 -64 7.5 -101t22 -55.5t36 -23t48.5 -4.5q26 0 48.5 9.5t38.5 21.5q4 -8 5.5 -18.5t1.5 -17.5q0 -6 -7.5 -14t-20.5 -14.5t-30 -11.5
t-36 -6v-106q0 -15 -11.5 -19.5t-37.5 -4.5v132q-28 3 -50.5 13t-38 35t-24 69.5t-8.5 115.5q0 79 12 131t32 83.5t45.5 46.5t52.5 20v106q0 16 12 21t38 5v-130z" />
    <glyph glyph-name="yen" unicode="&#xa5;" 
d="M187 180h-136q0 26 4 36t19 10h113v58l-21 57h-115q0 26 4 36t19 10h75l-111 304q-1 3 -0.5 5t6.5 3t19 1h37l48 -143l22 -63.5t21.5 -65.5l16.5 -54t7 -29q0 6 7 29l17 54l21.5 66l21.5 64l46 132q1 4 2.5 6t7.5 3t17.5 1h32.5l-111 -313h98q0 -26 -4 -36t-19 -10h-92
l-18 -53v-62h134q0 -26 -4 -36t-19 -10h-111v-167q0 -5 -1 -7.5t-6 -4t-16 -1.5h-32v180z" />
    <glyph glyph-name="dieresis" unicode="&#xa8;" horiz-adv-x="220" 
d="M0 649q0 17 10 29t29 12q20 0 30 -12t10 -29q0 -18 -11 -29.5t-29 -11.5q-21 0 -30 11t-9 30zM141 649q0 17 10 29t29 12q20 0 30 -12t10 -29q0 -18 -11 -29.5t-29 -11.5q-21 0 -30 11t-9 30z" />
    <glyph glyph-name="copyright" unicode="&#xa9;" horiz-adv-x="464" 
d="M291 657q0 -3 -2.5 -12.5t-4.5 -13.5q-7 4 -14.5 7t-18.5 3t-22 -3.5t-20 -15.5t-14.5 -34.5t-5.5 -60.5q0 -29 3.5 -46t10 -25.5t16.5 -11t22 -2.5t23.5 4t19.5 9q2 -5 4.5 -13t2.5 -11q0 -6 -17 -14t-37 -8t-36 3.5t-27 15.5t-16.5 35.5t-5.5 64.5q0 49 9 78t22.5 44
t30 19.5t32.5 4.5q15 0 30 -6t15 -11zM38 540q0 115 53.5 167.5t146.5 52.5q47 0 82.5 -11t59 -36.5t35.5 -67.5t12 -104q0 -108 -50.5 -164.5t-144.5 -56.5q-46 0 -82 10t-61 35t-38 67.5t-13 107.5zM82 537q0 -50 9.5 -83.5t28.5 -53.5t46 -28.5t62 -8.5q34 0 62.5 10.5
t49 33t32 56t11.5 80.5q0 98 -37.5 137t-106.5 39q-35 0 -64 -9.5t-49.5 -31t-32 -56t-11.5 -85.5z" />
    <glyph glyph-name="guillemotleft" unicode="&#xab;" horiz-adv-x="417" 
d="M28 255q0 4 6.5 17.5t17 31.5l23.5 39.5l27 43.5l75 113q8 0 13.5 -4.5t10.5 -9.5q5 -6 9 -14q0 -5 -5.5 -17t-15 -28.5l-21 -35.5l-23.5 -38l-64 -98l66 -102l24 -39t21.5 -35.5t15.5 -28.5t6 -16q-4 -10 -9 -17t-10.5 -12t-12.5 -5q-44 64 -77 117q-15 22 -28.5 44.5
l-24.5 41.5t-17.5 33t-6.5 19zM191 250q0 4 6 16.5t16.5 29.5l23.5 37.5t27 40.5l74 105q8 0 13.5 -4.5t10.5 -9.5q5 -6 9 -13q0 -5 -5.5 -16.5t-14.5 -26.5t-20.5 -32.5l-23.5 -35.5l-63 -91l65 -89l23.5 -34.5l21 -32t15 -25t5.5 -14.5q-4 -10 -8 -17q-4 -6 -10 -11
t-13 -5q-43 56 -76 104l-28 40t-24.5 37t-17 29.5t-6.5 17.5z" />
    <glyph glyph-name="registered" unicode="&#xae;" horiz-adv-x="464" 
d="M38 540q0 115 53.5 167.5t146.5 52.5q47 0 82.5 -11t59 -36.5t35.5 -67.5t12 -104q0 -108 -50.5 -164.5t-144.5 -56.5q-46 0 -82 10t-61 35t-38 67.5t-13 107.5zM82 537q0 -50 9.5 -83.5t28.5 -53.5t46 -28.5t62 -8.5q34 0 62.5 10.5t49 33t32 56t11.5 80.5
q0 98 -37.5 137t-106.5 39q-35 0 -64 -9.5t-49.5 -31t-32 -56t-11.5 -85.5zM172 671q0 1 1 2q3 3 5 3h49q45 0 64 -20.5t19 -51.5q0 -55 -41 -74q11 -11 26.5 -37t20.5 -73q0 -3 -1.5 -5.5t-9.5 -3.5q-2 0 -10 0.5t-12 0.5q-4 27 -10 46.5t-13 32.5t-13.5 20.5t-10.5 10.5
h-33v-102q0 -7 -7 -7.5t-24 -0.5v259zM277 604q0 20 -10.5 32t-39.5 12h-24v-97h23q51 0 51 53z" />
    <glyph glyph-name="acute" unicode="&#xb4;" horiz-adv-x="162" 
d="M22 578q-5 0 -8.5 5t-6.5 11q-4 7 -7 16l44 42.5t43 38l33.5 27t15.5 10.5q5 0 9.5 -5t8 -12t5.5 -14.5t3 -12.5q-3 -4 -18 -16l-35.5 -27.5l-43.5 -32.5t-43 -30z" />
    <glyph glyph-name="periodcentered" unicode="&#xb7;" horiz-adv-x="208" 
d="M59 269q0 18 11 31.5t31 13.5q23 0 33.5 -12.5t10.5 -32.5q0 -19 -12 -32t-32 -13q-23 0 -32.5 12.5t-9.5 32.5z" />
    <glyph glyph-name="cedilla" unicode="&#xb8;" horiz-adv-x="125" 
d="M71 3l-13 -63q1 0 3 1q2 0 5 0.5t10 0.5q18 0 33.5 -13.5t15.5 -44.5q0 -41 -22 -59t-50 -18q-20 0 -37 5q-9 2 -16 5q1 8 3 14q2 5 3.5 10.5t3.5 8.5q4 4 16 -2.5t28 -6.5q15 0 24.5 8.5t9.5 27.5q0 21 -9.5 28t-23.5 7q-8 0 -15 -1t-12 -2q-6 -2 -12 -3l19 97h36z" />
    <glyph glyph-name="guillemotright" unicode="&#xbb;" horiz-adv-x="415" 
d="M387 255q0 -5 -6.5 -19t-17.5 -33l-25 -41.5l-28 -44.5l-77 -117q-9 3 -16 7q-6 4 -11 10t-5 16q0 4 5.5 16t15 28.5l21.5 36l24 39.5l67 102q-37 53 -65 98l-23.5 38t-20.5 35.5t-14.5 28.5t-5.5 17q0 8 5 12.5t11 8.5q7 4 17 7l74 -113l27.5 -43.5l24 -39.5t17 -31.5
t6.5 -17.5zM226 250q0 -5 -6.5 -17.5t-17.5 -30t-25 -37.5l-28 -40q-33 -48 -76 -104q-9 3 -15 7t-10.5 10t-4.5 16q0 4 5.5 15t14.5 25.5t21 32l24 34.5l65 89q1 0 -8 13l-23.5 33.5l-31 44.5l-31 46.5t-24 40t-9.5 24.5q0 8 4.5 12.5t10.5 8.5q7 4 16 7l74 -105
l27.5 -40.5l24 -37.5t17 -29.5t6.5 -17.5z" />
    <glyph glyph-name="questiondown" unicode="&#xbf;" horiz-adv-x="302" 
d="M210 462q0 -18 -11 -31.5t-31 -13.5q-23 0 -33.5 12.5t-10.5 32.5q0 19 12 32t32 13q23 0 32.5 -12.5t9.5 -32.5zM154 -195q-27 0 -52.5 7t-45 23.5t-31 44t-11.5 67.5q0 43 13.5 77.5t32 63t38.5 52.5t33 47q11 18 14.5 35.5t3.5 32.5q0 23 -4 38.5t-1 18.5q5 7 21 7.5
t29 -1.5l5 -17q2 -8 4 -19t2 -25q0 -19 -4.5 -41t-18.5 -46q-15 -27 -34 -51t-36 -49t-28.5 -52.5t-11.5 -60.5q0 -32 10 -51.5t24.5 -29.5t31.5 -13t31 -3q32 0 56 9t40 21q3 -8 5 -18.5t2 -24.5q0 -7 -10 -14.5t-26.5 -13.5t-38 -10t-43.5 -4z" />
    <glyph glyph-name="Agrave" unicode="&#xc0;" horiz-adv-x="436" 
d="M322 193h-208l-46 -182q-2 -8 -7 -10t-20 -2h-14t-20 2l189 694q1 9 19 9q15 0 24 -3l189 -688q2 -8 -2.5 -11t-20.5 -3h-13.5t-19.5 1zM127 244h181l-48 185q-8 29 -15 58.5t-12.5 55.5t-9.5 47t-5 35q-2 -14 -5.5 -35t-9.5 -47l-13 -55.5t-15 -58.5zM243 783
q-2 0 -22.5 15l-46 34l-47.5 36t-25 21q1 5 3 12.5t5.5 14t8 11.5t9.5 5q1 0 10.5 -7.5l24 -19t31 -26l31.5 -27.5t25.5 -23t13.5 -14q-3 -9 -7 -16q-3 -6 -6.5 -11t-7.5 -5z" />
    <glyph glyph-name="Aacute" unicode="&#xc1;" horiz-adv-x="436" 
d="M322 193h-208l-46 -182q-2 -8 -7 -10t-20 -2h-14t-20 2l189 694q1 9 19 9q15 0 24 -3l189 -688q2 -8 -2.5 -11t-20.5 -3h-13.5t-19.5 1zM127 244h181l-48 185q-8 29 -15 58.5t-12.5 55.5t-9.5 47t-5 35q-2 -14 -5.5 -35t-9.5 -47l-13 -55.5t-15 -58.5zM199 778
q-5 0 -8.5 5t-6.5 11q-4 7 -7 16l44 42.5t43 38l33.5 27t15.5 10.5q5 0 9.5 -5t8 -12t5.5 -14.5t3 -12.5q-3 -4 -18 -16l-35.5 -27.5l-43.5 -32.5t-43 -30z" />
    <glyph glyph-name="Acircumflex" unicode="&#xc2;" horiz-adv-x="436" 
d="M322 193h-208l-46 -182q-2 -8 -7 -10t-20 -2h-14t-20 2l189 694q1 9 19 9q15 0 24 -3l189 -688q2 -8 -2.5 -11t-20.5 -3h-13.5t-19.5 1zM127 244h181l-48 185q-8 29 -15 58.5t-12.5 55.5t-9.5 47t-5 35q-2 -14 -5.5 -35t-9.5 -47l-13 -55.5t-15 -58.5zM206 913q6 2 13 2
q5 0 10 -2t10 -7q27 -27 48 -50l33.5 -37t15.5 -20q0 -5 -12.5 -12.5t-28.5 -7.5q-20 20 -36 38l-26.5 29t-14.5 19q-20 -25 -38 -43q-15 -16 -28.5 -29t-18.5 -13q-16 0 -25 7t-13 12z" />
    <glyph glyph-name="Atilde" unicode="&#xc3;" horiz-adv-x="436" 
d="M322 193h-208l-46 -182q-2 -8 -7 -10t-20 -2h-14t-20 2l189 694q1 9 19 9q15 0 24 -3l189 -688q2 -8 -2.5 -11t-20.5 -3h-13.5t-19.5 1zM127 244h181l-48 185q-8 29 -15 58.5t-12.5 55.5t-9.5 47t-5 35q-2 -14 -5.5 -35t-9.5 -47l-13 -55.5t-15 -58.5zM74 824
q24 41 50 54.5t52 13.5q17 0 27.5 -8t19 -17.5t18.5 -17.5t26 -8q19 0 31 7t19 15.5t11 15.5t9 7t9 -5t7 -11q4 -7 6 -16q-3 -7 -11 -18t-20 -21.5t-29 -18.5t-39 -8t-34.5 8.5t-21.5 18l-17 18t-21 8.5q-14 0 -24 -7t-17.5 -15.5t-12.5 -15.5t-9 -7q-6 0 -11 4.5t-9 9.5z
" />
    <glyph glyph-name="Adieresis" unicode="&#xc4;" horiz-adv-x="436" 
d="M322 193h-208l-46 -182q-2 -8 -7 -10t-20 -2h-14t-20 2l189 694q1 9 19 9q15 0 24 -3l189 -688q2 -8 -2.5 -11t-20.5 -3h-13.5t-19.5 1zM127 244h181l-48 185q-8 29 -15 58.5t-12.5 55.5t-9.5 47t-5 35q-2 -14 -5.5 -35t-9.5 -47l-13 -55.5t-15 -58.5zM109 849
q0 17 10 29t29 12q20 0 30 -12t10 -29q0 -18 -11 -29.5t-29 -11.5q-21 0 -30 11t-9 30zM250 849q0 17 10 29t29 12q20 0 30 -12t10 -29q0 -18 -11 -29.5t-29 -11.5q-21 0 -30 11t-9 30z" />
    <glyph glyph-name="Aring" unicode="&#xc5;" horiz-adv-x="436" 
d="M322 193h-208l-46 -182q-2 -8 -7 -10t-20 -2h-14t-20 2l189 694q1 9 19 9q15 0 24 -3l189 -688q2 -8 -2.5 -11t-20.5 -3h-13.5t-19.5 1zM127 244h181l-48 185q-8 29 -15 58.5t-12.5 55.5t-9.5 47t-5 35q-2 -14 -5.5 -35t-9.5 -47l-13 -55.5t-15 -58.5zM127 864
q0 48 25 69.5t69 21.5t65 -19.5t21 -70.5q0 -46 -24 -68.5t-69 -22.5q-41 0 -64 19t-23 71zM170 862q0 -23 11 -35.5t34 -12.5t36.5 12t13.5 39q0 28 -11.5 38.5t-32.5 10.5q-25 0 -38 -11.5t-13 -40.5z" />
    <glyph glyph-name="AE" unicode="&#xc6;" horiz-adv-x="642" 
d="M614 51q0 -35 -1.5 -43t-10.5 -8h-240v193h-196l-87 -182q-3 -7 -8 -9.5t-19 -2.5h-14t-20 2l328 688q2 5 7 8t11 3h251q0 -34 -1.5 -42.5t-9.5 -8.5h-187v-241h175q0 -32 -1.5 -41.5t-9.5 -9.5h-164v-306h197zM190 244h172v391q-8 -23 -18.5 -50l-22 -54.5l-23 -54.5
l-21.5 -51z" />
    <glyph glyph-name="Ccedilla" unicode="&#xc7;" horiz-adv-x="353" 
d="M233 711q49 0 71 -17.5t22 -32.5q0 -10 -3 -19t-7 -15q-3 3 -10 8t-16.5 10t-22 9t-26.5 4q-26 0 -52 -11t-46.5 -47t-33.5 -103.5t-13 -180.5q0 -86 10 -138.5t26.5 -81t38 -38t44.5 -9.5q35 0 63 14.5t41 29.5q4 -7 7 -16t3 -19q0 -11 -8 -22.5t-23 -21t-35 -16.5
t-44 -8l-10 -50q1 0 3 1q2 0 5 0.5t10 0.5q18 0 33.5 -13.5t15.5 -44.5q0 -41 -22 -59t-50 -18q-20 0 -37 5q-9 2 -16 5q1 8 3 14q2 5 3.5 10.5t3.5 8.5q4 4 16 -2.5t28 -6.5q15 0 24.5 8.5t9.5 27.5q0 21 -9.5 28t-23.5 7q-8 0 -15 -1t-12 -2q-6 -2 -12 -3l16 84
q-28 2 -54 14.5t-46 47.5t-32 98t-12 167q0 132 18 210t46 119t62.5 53t67.5 12z" />
    <glyph glyph-name="Egrave" unicode="&#xc8;" horiz-adv-x="337" 
d="M308 51q0 -35 -1.5 -43t-10.5 -8h-239v686q0 3 2 7q2 2 4 4.5t7 2.5h239q0 -34 -1 -42.5t-9 -8.5h-188v-241h176q0 -32 -1.5 -41.5t-10.5 -9.5h-164v-306h197zM220 783q-2 0 -22.5 15l-46 34l-47.5 36t-25 21q1 5 3 12.5t5.5 14t8 11.5t9.5 5q1 0 10.5 -7.5l24 -19
t31 -26l31.5 -27.5t25.5 -23t13.5 -14q-3 -9 -7 -16q-3 -6 -6.5 -11t-7.5 -5z" />
    <glyph glyph-name="Eacute" unicode="&#xc9;" horiz-adv-x="337" 
d="M308 51q0 -35 -1.5 -43t-10.5 -8h-239v686q0 3 2 7q2 2 4 4.5t7 2.5h239q0 -34 -1 -42.5t-9 -8.5h-188v-241h176q0 -32 -1.5 -41.5t-10.5 -9.5h-164v-306h197zM175 778q-5 0 -8.5 5t-6.5 11q-4 7 -7 16l44 42.5t43 38l33.5 27t15.5 10.5q5 0 9.5 -5t8 -12t5.5 -14.5
t3 -12.5q-3 -4 -18 -16l-35.5 -27.5l-43.5 -32.5t-43 -30z" />
    <glyph glyph-name="Ecircumflex" unicode="&#xca;" horiz-adv-x="337" 
d="M308 51q0 -35 -1.5 -43t-10.5 -8h-239v686q0 3 2 7q2 2 4 4.5t7 2.5h239q0 -34 -1 -42.5t-9 -8.5h-188v-241h176q0 -32 -1.5 -41.5t-10.5 -9.5h-164v-306h197zM182 913q6 2 13 2q5 0 10 -2t10 -7q27 -27 48 -50l33.5 -37t15.5 -20q0 -5 -12.5 -12.5t-28.5 -7.5
q-20 20 -36 38l-26.5 29t-14.5 19q-20 -25 -38 -43q-15 -16 -28.5 -29t-18.5 -13q-16 0 -25 7t-13 12z" />
    <glyph glyph-name="Edieresis" unicode="&#xcb;" horiz-adv-x="337" 
d="M308 51q0 -35 -1.5 -43t-10.5 -8h-239v686q0 3 2 7q2 2 4 4.5t7 2.5h239q0 -34 -1 -42.5t-9 -8.5h-188v-241h176q0 -32 -1.5 -41.5t-10.5 -9.5h-164v-306h197zM85 849q0 17 10 29t29 12q20 0 30 -12t10 -29q0 -18 -11 -29.5t-29 -11.5q-21 0 -30 11t-9 30zM226 849
q0 17 10 29t29 12q20 0 30 -12t10 -29q0 -18 -11 -29.5t-29 -11.5q-21 0 -30 11t-9 30z" />
    <glyph glyph-name="Igrave" unicode="&#xcc;" horiz-adv-x="165" 
d="M54 672q0 10 1 16t6.5 8.5t17 3t31.5 0.5v-687q0 -5 -1 -7.5t-6.5 -4t-16.5 -1.5h-32v672zM109 783q-2 0 -22.5 15l-46 34l-47.5 36t-25 21q1 5 3 12.5t5.5 14t8 11.5t9.5 5q1 0 10.5 -7.5l24 -19t31 -26l31.5 -27.5t25.5 -23t13.5 -14q-3 -9 -7 -16q-3 -6 -6.5 -11
t-7.5 -5z" />
    <glyph glyph-name="Iacute" unicode="&#xcd;" horiz-adv-x="165" 
d="M54 672q0 10 1 16t6.5 8.5t17 3t31.5 0.5v-687q0 -5 -1 -7.5t-6.5 -4t-16.5 -1.5h-32v672zM63 778q-5 0 -8.5 5t-6.5 11q-4 7 -7 16l44 42.5t43 38l33.5 27t15.5 10.5q5 0 9.5 -5t8 -12t5.5 -14.5t3 -12.5q-3 -4 -18 -16l-35.5 -27.5l-43.5 -32.5t-43 -30z" />
    <glyph glyph-name="Icircumflex" unicode="&#xce;" horiz-adv-x="165" 
d="M54 672q0 10 1 16t6.5 8.5t17 3t31.5 0.5v-687q0 -5 -1 -7.5t-6.5 -4t-16.5 -1.5h-32v672zM72 913q6 2 13 2q5 0 10 -2t10 -7q27 -27 48 -50l33.5 -37t15.5 -20q0 -5 -12.5 -12.5t-28.5 -7.5q-20 20 -36 38l-26.5 29t-14.5 19q-20 -25 -38 -43q-15 -16 -28.5 -29
t-18.5 -13q-16 0 -25 7t-13 12z" />
    <glyph glyph-name="Idieresis" unicode="&#xcf;" horiz-adv-x="165" 
d="M54 672q0 10 1 16t6.5 8.5t17 3t31.5 0.5v-687q0 -5 -1 -7.5t-6.5 -4t-16.5 -1.5h-32v672zM-25 849q0 17 10 29t29 12q20 0 30 -12t10 -29q0 -18 -11 -29.5t-29 -11.5q-21 0 -30 11t-9 30zM116 849q0 17 10 29t29 12q20 0 30 -12t10 -29q0 -18 -11 -29.5t-29 -11.5
q-21 0 -30 11t-9 30z" />
    <glyph glyph-name="Ntilde" unicode="&#xd1;" horiz-adv-x="456" 
d="M227 281l-11 26.5t-18.5 47.5l-23.5 61l-25.5 65.5l-24 62l-19.5 50.5q0 -19 0.5 -49.5t1 -66l1 -72.5t1 -68t0.5 -53v-27v-245q0 -5 -1 -7.5t-6 -4t-16 -1.5h-31v686q0 14 13 14h39l120 -276l11 -29l19.5 -50l24.5 -62.5l26 -66l24 -61t19 -47.5q-1 15 -2 44.5
t-1.5 65.5t-0.5 74t-0.5 71t-0.5 56.5v29.5v237q0 5 1 8t6 4.5t16.5 1.5h31.5v-687q0 -13 -13 -13h-38zM93 824q24 41 50 54.5t52 13.5q17 0 27.5 -8t19 -17.5t18.5 -17.5t26 -8q19 0 31 7t19 15.5t11 15.5t9 7t9 -5t7 -11q4 -7 6 -16q-3 -7 -11 -18t-20 -21.5t-29 -18.5
t-39 -8t-34.5 8.5t-21.5 18l-17 18t-21 8.5q-14 0 -24 -7t-17.5 -15.5t-12.5 -15.5t-9 -7q-6 0 -11 4.5t-9 9.5z" />
    <glyph glyph-name="Ograve" unicode="&#xd2;" horiz-adv-x="446" 
d="M38 355q0 97 12 165t36 110t60 61t84 19q49 0 83 -18t55 -59.5t30.5 -109t9.5 -167.5q0 -101 -11 -171t-34 -113.5t-59 -62.5t-85 -19q-48 0 -82.5 17t-56 59t-32 112.5t-10.5 176.5zM99 338q0 -80 6.5 -135t21 -90t38 -50.5t56.5 -15.5q34 0 58.5 16.5t40 53.5t22.5 96
t7 144q0 83 -6.5 139.5t-20.5 91.5t-37.5 50.5t-56.5 15.5t-57.5 -16.5t-40 -54t-23.5 -98t-8 -147.5zM258 783q-2 0 -22.5 15l-46 34l-47.5 36t-25 21q1 5 3 12.5t5.5 14t8 11.5t9.5 5q1 0 10.5 -7.5l24 -19t31 -26l31.5 -27.5t25.5 -23t13.5 -14q-3 -9 -7 -16
q-3 -6 -6.5 -11t-7.5 -5z" />
    <glyph glyph-name="Oacute" unicode="&#xd3;" horiz-adv-x="446" 
d="M38 355q0 97 12 165t36 110t60 61t84 19q49 0 83 -18t55 -59.5t30.5 -109t9.5 -167.5q0 -101 -11 -171t-34 -113.5t-59 -62.5t-85 -19q-48 0 -82.5 17t-56 59t-32 112.5t-10.5 176.5zM99 338q0 -80 6.5 -135t21 -90t38 -50.5t56.5 -15.5q34 0 58.5 16.5t40 53.5t22.5 96
t7 144q0 83 -6.5 139.5t-20.5 91.5t-37.5 50.5t-56.5 15.5t-57.5 -16.5t-40 -54t-23.5 -98t-8 -147.5zM213 778q-5 0 -8.5 5t-6.5 11q-4 7 -7 16l44 42.5t43 38l33.5 27t15.5 10.5q5 0 9.5 -5t8 -12t5.5 -14.5t3 -12.5q-3 -4 -18 -16l-35.5 -27.5l-43.5 -32.5t-43 -30z" />
    <glyph glyph-name="Ocircumflex" unicode="&#xd4;" horiz-adv-x="446" 
d="M38 355q0 97 12 165t36 110t60 61t84 19q49 0 83 -18t55 -59.5t30.5 -109t9.5 -167.5q0 -101 -11 -171t-34 -113.5t-59 -62.5t-85 -19q-48 0 -82.5 17t-56 59t-32 112.5t-10.5 176.5zM99 338q0 -80 6.5 -135t21 -90t38 -50.5t56.5 -15.5q34 0 58.5 16.5t40 53.5t22.5 96
t7 144q0 83 -6.5 139.5t-20.5 91.5t-37.5 50.5t-56.5 15.5t-57.5 -16.5t-40 -54t-23.5 -98t-8 -147.5zM220 913q6 2 13 2q5 0 10 -2t10 -7q27 -27 48 -50l33.5 -37t15.5 -20q0 -5 -12.5 -12.5t-28.5 -7.5q-20 20 -36 38l-26.5 29t-14.5 19q-20 -25 -38 -43
q-15 -16 -28.5 -29t-18.5 -13q-16 0 -25 7t-13 12z" />
    <glyph glyph-name="Otilde" unicode="&#xd5;" horiz-adv-x="446" 
d="M38 355q0 97 12 165t36 110t60 61t84 19q49 0 83 -18t55 -59.5t30.5 -109t9.5 -167.5q0 -101 -11 -171t-34 -113.5t-59 -62.5t-85 -19q-48 0 -82.5 17t-56 59t-32 112.5t-10.5 176.5zM99 338q0 -80 6.5 -135t21 -90t38 -50.5t56.5 -15.5q34 0 58.5 16.5t40 53.5t22.5 96
t7 144q0 83 -6.5 139.5t-20.5 91.5t-37.5 50.5t-56.5 15.5t-57.5 -16.5t-40 -54t-23.5 -98t-8 -147.5zM88 824q24 41 50 54.5t52 13.5q17 0 27.5 -8t19 -17.5t18.5 -17.5t26 -8q19 0 31 7t19 15.5t11 15.5t9 7t9 -5t7 -11q4 -7 6 -16q-3 -7 -11 -18t-20 -21.5t-29 -18.5
t-39 -8t-34.5 8.5t-21.5 18l-17 18t-21 8.5q-14 0 -24 -7t-17.5 -15.5t-12.5 -15.5t-9 -7q-6 0 -11 4.5t-9 9.5z" />
    <glyph glyph-name="Odieresis" unicode="&#xd6;" horiz-adv-x="446" 
d="M38 355q0 97 12 165t36 110t60 61t84 19q49 0 83 -18t55 -59.5t30.5 -109t9.5 -167.5q0 -101 -11 -171t-34 -113.5t-59 -62.5t-85 -19q-48 0 -82.5 17t-56 59t-32 112.5t-10.5 176.5zM99 338q0 -80 6.5 -135t21 -90t38 -50.5t56.5 -15.5q34 0 58.5 16.5t40 53.5t22.5 96
t7 144q0 83 -6.5 139.5t-20.5 91.5t-37.5 50.5t-56.5 15.5t-57.5 -16.5t-40 -54t-23.5 -98t-8 -147.5zM123 849q0 17 10 29t29 12q20 0 30 -12t10 -29q0 -18 -11 -29.5t-29 -11.5q-21 0 -30 11t-9 30zM264 849q0 17 10 29t29 12q20 0 30 -12t10 -29q0 -18 -11 -29.5
t-29 -11.5q-21 0 -30 11t-9 30z" />
    <glyph glyph-name="multiply" unicode="&#xd7;" 
d="M215 243l-82 -93q-8 -8 -16.5 -1t-28.5 27l93 105l-94 107q20 20 29 26.5t16 -0.5l83 -94l84 94q8 7 16.5 0.5t28.5 -26.5l-95 -107l94 -105q-20 -20 -28.5 -27t-16.5 1z" />
    <glyph glyph-name="Oslash" unicode="&#xd8;" horiz-adv-x="464" 
d="M89 -16q-6 -1 -20 3t-16 15q0 1 3.5 9.5t8 20.5l9.5 24.5l9 22.5q-19 42 -27.5 109.5t-8.5 166.5q0 97 11.5 165t35 110t59.5 61t84 19q38 0 66.5 -10.5t49.5 -33.5l21 53q9 -1 17 -3q7 -2 12.5 -5.5t7.5 -9.5q0 -2 -3 -11l-7 -21.5t-9 -26.5l-9 -25q17 -42 25.5 -106
t8.5 -155q0 -101 -11 -171t-34 -113.5t-58.5 -62.5t-84.5 -19q-38 0 -67.5 10.5t-51.5 34.5zM358 357q0 74 -5 127t-16 88q-11 -31 -27.5 -73.5l-34.5 -90.5l-36.5 -98l-35.5 -94l-30.5 -79.5l-21.5 -55.5q26 -35 76 -35q33 0 57.5 14t41 49t24.5 95.5t8 152.5zM108 338
q0 -72 5 -124t16 -87l185 492q-14 19 -33 27t-43 8q-33 0 -57.5 -16.5t-40.5 -54t-24 -98t-8 -147.5z" />
    <glyph glyph-name="Ugrave" unicode="&#xd9;" horiz-adv-x="458" 
d="M111 213q0 -35 4 -66.5t16.5 -54.5t37.5 -36.5t67 -13.5q34 0 65.5 6.5t46.5 14.5v624q0 5 1 7.5t6.5 4t17 1.5h31.5v-675q-20 -13 -66.5 -24t-101.5 -11q-62 0 -97.5 18.5t-54.5 49t-24 71.5t-5 86v471q0 5 1 8t6 4.5t16.5 1.5h32.5v-487zM261 783q-2 0 -22.5 15l-46 34
l-47.5 36t-25 21q1 5 3 12.5t5.5 14t8 11.5t9.5 5q1 0 10.5 -7.5l24 -19t31 -26l31.5 -27.5t25.5 -23t13.5 -14q-3 -9 -7 -16q-3 -6 -6.5 -11t-7.5 -5z" />
    <glyph glyph-name="Uacute" unicode="&#xda;" horiz-adv-x="458" 
d="M111 213q0 -35 4 -66.5t16.5 -54.5t37.5 -36.5t67 -13.5q34 0 65.5 6.5t46.5 14.5v624q0 5 1 7.5t6.5 4t17 1.5h31.5v-675q-20 -13 -66.5 -24t-101.5 -11q-62 0 -97.5 18.5t-54.5 49t-24 71.5t-5 86v471q0 5 1 8t6 4.5t16.5 1.5h32.5v-487zM216 778q-5 0 -8.5 5t-6.5 11
q-4 7 -7 16l44 42.5t43 38l33.5 27t15.5 10.5q5 0 9.5 -5t8 -12t5.5 -14.5t3 -12.5q-3 -4 -18 -16l-35.5 -27.5l-43.5 -32.5t-43 -30z" />
    <glyph glyph-name="Ucircumflex" unicode="&#xdb;" horiz-adv-x="458" 
d="M111 213q0 -35 4 -66.5t16.5 -54.5t37.5 -36.5t67 -13.5q34 0 65.5 6.5t46.5 14.5v624q0 5 1 7.5t6.5 4t17 1.5h31.5v-675q-20 -13 -66.5 -24t-101.5 -11q-62 0 -97.5 18.5t-54.5 49t-24 71.5t-5 86v471q0 5 1 8t6 4.5t16.5 1.5h32.5v-487zM223 913q6 2 13 2q5 0 10 -2
t10 -7q27 -27 48 -50l33.5 -37t15.5 -20q0 -5 -12.5 -12.5t-28.5 -7.5q-20 20 -36 38l-26.5 29t-14.5 19q-20 -25 -38 -43q-15 -16 -28.5 -29t-18.5 -13q-16 0 -25 7t-13 12z" />
    <glyph glyph-name="Udieresis" unicode="&#xdc;" horiz-adv-x="458" 
d="M111 213q0 -35 4 -66.5t16.5 -54.5t37.5 -36.5t67 -13.5q34 0 65.5 6.5t46.5 14.5v624q0 5 1 7.5t6.5 4t17 1.5h31.5v-675q-20 -13 -66.5 -24t-101.5 -11q-62 0 -97.5 18.5t-54.5 49t-24 71.5t-5 86v471q0 5 1 8t6 4.5t16.5 1.5h32.5v-487zM126 849q0 17 10 29t29 12
q20 0 30 -12t10 -29q0 -18 -11 -29.5t-29 -11.5q-21 0 -30 11t-9 30zM267 849q0 17 10 29t29 12q20 0 30 -12t10 -29q0 -18 -11 -29.5t-29 -11.5q-21 0 -30 11t-9 30z" />
    <glyph glyph-name="Yacute" unicode="&#xdd;" horiz-adv-x="361" 
d="M155 284l-149 407q-1 3 -0.5 5t6.5 3t19 1h37l48 -143q10 -28 21.5 -63.5t21 -68l16.5 -57.5t9 -33q1 8 8 33l17 58l21.5 68l21.5 64l44 132q1 4 2.5 6t7.5 3t17.5 1h32.5l-146 -414v-273q0 -5 -0.5 -7.5t-6 -4t-16.5 -1.5h-32v284zM165 778q-5 0 -8.5 5t-6.5 11
q-4 7 -7 16l44 42.5t43 38l33.5 27t15.5 10.5q5 0 9.5 -5t8 -12t5.5 -14.5t3 -12.5q-3 -4 -18 -16l-35.5 -27.5l-43.5 -32.5t-43 -30z" />
    <glyph glyph-name="germandbls" unicode="&#xdf;" horiz-adv-x="470" 
d="M57 549q0 84 43 119.5t114 35.5q54 0 91 -13.5t60 -34.5t33 -46t10 -48t-9.5 -39.5t-23.5 -29t-31 -23t-31 -21.5t-23.5 -23.5t-9.5 -29.5q0 -18 13 -34t32.5 -32.5l42.5 -34.5t42.5 -41t32.5 -52t13 -66q0 -70 -40.5 -107.5t-109.5 -37.5q-58 0 -88 15.5t-30 27.5
q0 14 6 24t9 14q14 -12 36 -21.5t57 -9.5q43 0 72 22.5t29 70.5q0 30 -13 54t-32.5 44.5t-42.5 38.5t-42.5 37t-32.5 39.5t-13 45.5q0 34 20 55t44.5 37.5t44.5 33.5t20 43q0 15 -7.5 31.5t-23.5 29.5t-41 21.5t-60 8.5q-56 0 -81 -31t-25 -105l1 -489q0 -19 -6 -28t-26 -9
q-16 0 -24 5q-4 2 -8 5q2 6 4 14q2 7 3.5 16.5t1.5 22.5z" />
    <glyph glyph-name="agrave" unicode="&#xe0;" horiz-adv-x="367" 
d="M36 464q0 14 8 20q15 9 58.5 17.5t98.5 8.5q60 0 90 -26.5t30 -94.5v-60q0 -86 -1.5 -165t-3.5 -138q-17 -11 -50 -23.5t-86 -12.5q-27 0 -53 4t-46 19t-32.5 45t-12.5 81q0 53 12.5 85t33.5 49.5t48 23t55 5.5q20 0 42.5 -2.5t39.5 -9.5v88q0 24 -5.5 39.5t-16 24.5
t-25 12t-32.5 3q-48 0 -86 -8t-58 -17q-8 16 -8 32zM267 249q-14 5 -32.5 7.5t-32.5 2.5q-21 0 -41 -3.5t-35 -15.5t-24 -35.5t-9 -63.5q0 -36 7.5 -56.5t20.5 -31t30.5 -13t36.5 -2.5q24 0 45 7t29 15q1 16 2 38t1.5 47.5l1 52.5t0.5 51zM211 583q-2 0 -22.5 15l-46 34
l-47.5 36t-25 21q1 5 3 12.5t5.5 14t8 11.5t9.5 5q1 0 10.5 -7.5l24 -19t31 -26l31.5 -27.5t25.5 -23t13.5 -14q-3 -9 -7 -16q-3 -6 -6.5 -11t-7.5 -5z" />
    <glyph glyph-name="aacute" unicode="&#xe1;" horiz-adv-x="367" 
d="M36 464q0 14 8 20q15 9 58.5 17.5t98.5 8.5q60 0 90 -26.5t30 -94.5v-60q0 -86 -1.5 -165t-3.5 -138q-17 -11 -50 -23.5t-86 -12.5q-27 0 -53 4t-46 19t-32.5 45t-12.5 81q0 53 12.5 85t33.5 49.5t48 23t55 5.5q20 0 42.5 -2.5t39.5 -9.5v88q0 24 -5.5 39.5t-16 24.5
t-25 12t-32.5 3q-48 0 -86 -8t-58 -17q-8 16 -8 32zM267 249q-14 5 -32.5 7.5t-32.5 2.5q-21 0 -41 -3.5t-35 -15.5t-24 -35.5t-9 -63.5q0 -36 7.5 -56.5t20.5 -31t30.5 -13t36.5 -2.5q24 0 45 7t29 15q1 16 2 38t1.5 47.5l1 52.5t0.5 51zM167 578q-5 0 -8.5 5t-6.5 11
q-4 7 -7 16l44 42.5t43 38l33.5 27t15.5 10.5q5 0 9.5 -5t8 -12t5.5 -14.5t3 -12.5q-3 -4 -18 -16l-35.5 -27.5l-43.5 -32.5t-43 -30z" />
    <glyph glyph-name="acircumflex" unicode="&#xe2;" horiz-adv-x="367" 
d="M36 464q0 14 8 20q15 9 58.5 17.5t98.5 8.5q60 0 90 -26.5t30 -94.5v-60q0 -86 -1.5 -165t-3.5 -138q-17 -11 -50 -23.5t-86 -12.5q-27 0 -53 4t-46 19t-32.5 45t-12.5 81q0 53 12.5 85t33.5 49.5t48 23t55 5.5q20 0 42.5 -2.5t39.5 -9.5v88q0 24 -5.5 39.5t-16 24.5
t-25 12t-32.5 3q-48 0 -86 -8t-58 -17q-8 16 -8 32zM267 249q-14 5 -32.5 7.5t-32.5 2.5q-21 0 -41 -3.5t-35 -15.5t-24 -35.5t-9 -63.5q0 -36 7.5 -56.5t20.5 -31t30.5 -13t36.5 -2.5q24 0 45 7t29 15q1 16 2 38t1.5 47.5l1 52.5t0.5 51zM174 713q6 2 13 2q5 0 10 -2t10 -7
q27 -27 48 -50l33.5 -37t15.5 -20q0 -5 -12.5 -12.5t-28.5 -7.5q-20 20 -36 38l-26.5 29t-14.5 19q-20 -25 -38 -43q-15 -16 -28.5 -29t-18.5 -13q-16 0 -25 7t-13 12z" />
    <glyph glyph-name="atilde" unicode="&#xe3;" horiz-adv-x="367" 
d="M36 464q0 14 8 20q15 9 58.5 17.5t98.5 8.5q60 0 90 -26.5t30 -94.5v-60q0 -86 -1.5 -165t-3.5 -138q-17 -11 -50 -23.5t-86 -12.5q-27 0 -53 4t-46 19t-32.5 45t-12.5 81q0 53 12.5 85t33.5 49.5t48 23t55 5.5q20 0 42.5 -2.5t39.5 -9.5v88q0 24 -5.5 39.5t-16 24.5
t-25 12t-32.5 3q-48 0 -86 -8t-58 -17q-8 16 -8 32zM267 249q-14 5 -32.5 7.5t-32.5 2.5q-21 0 -41 -3.5t-35 -15.5t-24 -35.5t-9 -63.5q0 -36 7.5 -56.5t20.5 -31t30.5 -13t36.5 -2.5q24 0 45 7t29 15q1 16 2 38t1.5 47.5l1 52.5t0.5 51zM42 624q24 41 50 54.5t52 13.5
q17 0 27.5 -8t19 -17.5t18.5 -17.5t26 -8q19 0 31 7t19 15.5t11 15.5t9 7t9 -5t7 -11q4 -7 6 -16q-3 -7 -11 -18t-20 -21.5t-29 -18.5t-39 -8t-34.5 8.5t-21.5 18l-17 18t-21 8.5q-14 0 -24 -7t-17.5 -15.5t-12.5 -15.5t-9 -7q-6 0 -11 4.5t-9 9.5z" />
    <glyph glyph-name="adieresis" unicode="&#xe4;" horiz-adv-x="367" 
d="M36 464q0 14 8 20q15 9 58.5 17.5t98.5 8.5q60 0 90 -26.5t30 -94.5v-60q0 -86 -1.5 -165t-3.5 -138q-17 -11 -50 -23.5t-86 -12.5q-27 0 -53 4t-46 19t-32.5 45t-12.5 81q0 53 12.5 85t33.5 49.5t48 23t55 5.5q20 0 42.5 -2.5t39.5 -9.5v88q0 24 -5.5 39.5t-16 24.5
t-25 12t-32.5 3q-48 0 -86 -8t-58 -17q-8 16 -8 32zM267 249q-14 5 -32.5 7.5t-32.5 2.5q-21 0 -41 -3.5t-35 -15.5t-24 -35.5t-9 -63.5q0 -36 7.5 -56.5t20.5 -31t30.5 -13t36.5 -2.5q24 0 45 7t29 15q1 16 2 38t1.5 47.5l1 52.5t0.5 51zM77 649q0 17 10 29t29 12
q20 0 30 -12t10 -29q0 -18 -11 -29.5t-29 -11.5q-21 0 -30 11t-9 30zM218 649q0 17 10 29t29 12q20 0 30 -12t10 -29q0 -18 -11 -29.5t-29 -11.5q-21 0 -30 11t-9 30z" />
    <glyph glyph-name="aring" unicode="&#xe5;" horiz-adv-x="367" 
d="M36 464q0 14 8 20q15 9 58.5 17.5t98.5 8.5q60 0 90 -26.5t30 -94.5v-60q0 -86 -1.5 -165t-3.5 -138q-17 -11 -50 -23.5t-86 -12.5q-27 0 -53 4t-46 19t-32.5 45t-12.5 81q0 53 12.5 85t33.5 49.5t48 23t55 5.5q20 0 42.5 -2.5t39.5 -9.5v88q0 24 -5.5 39.5t-16 24.5
t-25 12t-32.5 3q-48 0 -86 -8t-58 -17q-8 16 -8 32zM267 249q-14 5 -32.5 7.5t-32.5 2.5q-21 0 -41 -3.5t-35 -15.5t-24 -35.5t-9 -63.5q0 -36 7.5 -56.5t20.5 -31t30.5 -13t36.5 -2.5q24 0 45 7t29 15q1 16 2 38t1.5 47.5l1 52.5t0.5 51zM95 664q0 48 25 69.5t69 21.5
t65 -19.5t21 -70.5q0 -46 -24 -68.5t-69 -22.5q-41 0 -64 19t-23 71zM138 662q0 -23 11 -35.5t34 -12.5t36.5 12t13.5 39q0 28 -11.5 38.5t-32.5 10.5q-25 0 -38 -11.5t-13 -40.5z" />
    <glyph glyph-name="ae" unicode="&#xe6;" horiz-adv-x="620" 
d="M40 464q0 6 3 11.5t6 7.5q15 10 52.5 18.5t99.5 8.5q48 0 74.5 -17.5t34.5 -61.5q12 26 28 41.5t34 24t37.5 11t39.5 2.5q66 0 96 -40t30 -115q0 -32 -2.5 -65t-7.5 -58q-24 -4 -47 -5.5t-46 -1.5q-48 0 -86.5 5t-59.5 10v-17q0 -61 8 -96.5t23 -53.5t35.5 -23t46.5 -5
q36 0 68 8.5t56 25.5q4 -9 5.5 -24t1.5 -26q0 -5 -11 -11t-29.5 -12t-43.5 -10t-52 -4q-38 0 -69 8.5t-51 37.5v-17q-17 -10 -49 -20t-85 -10q-27 0 -53 3.5t-46 18.5t-32.5 45.5t-12.5 83.5t12.5 85.5t33.5 50.5t47.5 24.5t54.5 6.5q21 0 43.5 -2.5t39.5 -9.5v84
q0 24 -6.5 39.5t-17.5 24.5t-27 12t-34 3q-43 0 -77.5 -8t-57.5 -21q-5 8 -6 18t-1 15zM267 256q-14 5 -32.5 7.5t-32.5 2.5q-21 0 -41 -4t-35 -17.5t-24 -38t-9 -65.5q0 -36 7.5 -56.5t20.5 -31t30 -13t36 -2.5q24 0 47.5 6t32.5 15v197zM444 460q-18 0 -36.5 -5.5t-35 -24
t-28.5 -53t-16 -91.5q22 -5 59.5 -10.5t77.5 -5.5q14 0 27 1t25 3q2 18 3 36t1 34q-1 60 -16.5 88t-60.5 28z" />
    <glyph glyph-name="ccedilla" unicode="&#xe7;" horiz-adv-x="331" 
d="M304 470q0 -6 -1.5 -15t-5.5 -18q-12 8 -32 15.5t-46 7.5q-20 0 -42 -6.5t-40 -30t-29.5 -68t-11.5 -119.5q0 -61 7.5 -99.5t22 -60t34.5 -29t45 -7.5q31 0 55 9.5t37 20.5q7 -17 7 -32t-26.5 -29.5t-70.5 -17.5l-10 -51q1 0 3 1q2 0 5 0.5t10 0.5q18 0 33.5 -13.5
t15.5 -44.5q0 -41 -22 -59t-50 -18q-20 0 -37 5q-9 2 -16 5q1 8 3 14q2 5 3.5 10.5t3.5 8.5q4 4 16 -2.5t28 -6.5q15 0 24.5 8.5t9.5 27.5q0 21 -9.5 28t-23.5 7q-8 0 -15 -1t-12 -2q-6 -2 -12 -3l16 85q-30 2 -54 13t-41 38t-26.5 74.5t-9.5 122.5q0 90 16.5 143.5t43 82
t58.5 37t62 8.5q35 0 59.5 -11.5t24.5 -28.5z" />
    <glyph glyph-name="egrave" unicode="&#xe8;" horiz-adv-x="375" 
d="M217 510q66 0 96 -41.5t30 -116.5q0 -32 -2.5 -63.5t-7.5 -56.5q-32 -6 -67 -10t-67.5 -5.5t-60.5 -2t-44 -0.5q0 -55 8.5 -88.5t23.5 -51.5t36.5 -24t48.5 -6q34 0 65.5 8.5t54.5 25.5q4 -10 5.5 -20.5t1.5 -18.5q0 -9 -11 -18t-29.5 -15.5t-43.5 -11t-52 -4.5
q-36 0 -66 8t-51.5 33t-34 71t-12.5 121q0 96 16.5 153t42 87t57.5 38.5t63 8.5zM212 460q-19 0 -39 -6.5t-36.5 -27.5t-27.5 -60.5t-14 -105.5h38.5t50.5 1.5t53.5 4.5t47.5 8q2 18 3 34.5t1 32.5q-1 60 -16.5 89.5t-60.5 29.5zM235 583q-2 0 -22.5 15l-46 34l-47.5 36
t-25 21q1 5 3 12.5t5.5 14t8 11.5t9.5 5q1 0 10.5 -7.5l24 -19t31 -26l31.5 -27.5t25.5 -23t13.5 -14q-3 -9 -7 -16q-3 -6 -6.5 -11t-7.5 -5z" />
    <glyph glyph-name="eacute" unicode="&#xe9;" horiz-adv-x="375" 
d="M217 510q66 0 96 -41.5t30 -116.5q0 -32 -2.5 -63.5t-7.5 -56.5q-32 -6 -67 -10t-67.5 -5.5t-60.5 -2t-44 -0.5q0 -55 8.5 -88.5t23.5 -51.5t36.5 -24t48.5 -6q34 0 65.5 8.5t54.5 25.5q4 -10 5.5 -20.5t1.5 -18.5q0 -9 -11 -18t-29.5 -15.5t-43.5 -11t-52 -4.5
q-36 0 -66 8t-51.5 33t-34 71t-12.5 121q0 96 16.5 153t42 87t57.5 38.5t63 8.5zM212 460q-19 0 -39 -6.5t-36.5 -27.5t-27.5 -60.5t-14 -105.5h38.5t50.5 1.5t53.5 4.5t47.5 8q2 18 3 34.5t1 32.5q-1 60 -16.5 89.5t-60.5 29.5zM191 578q-5 0 -8.5 5t-6.5 11q-4 7 -7 16
l44 42.5t43 38l33.5 27t15.5 10.5q5 0 9.5 -5t8 -12t5.5 -14.5t3 -12.5q-3 -4 -18 -16l-35.5 -27.5l-43.5 -32.5t-43 -30z" />
    <glyph glyph-name="ecircumflex" unicode="&#xea;" horiz-adv-x="375" 
d="M217 510q66 0 96 -41.5t30 -116.5q0 -32 -2.5 -63.5t-7.5 -56.5q-32 -6 -67 -10t-67.5 -5.5t-60.5 -2t-44 -0.5q0 -55 8.5 -88.5t23.5 -51.5t36.5 -24t48.5 -6q34 0 65.5 8.5t54.5 25.5q4 -10 5.5 -20.5t1.5 -18.5q0 -9 -11 -18t-29.5 -15.5t-43.5 -11t-52 -4.5
q-36 0 -66 8t-51.5 33t-34 71t-12.5 121q0 96 16.5 153t42 87t57.5 38.5t63 8.5zM212 460q-19 0 -39 -6.5t-36.5 -27.5t-27.5 -60.5t-14 -105.5h38.5t50.5 1.5t53.5 4.5t47.5 8q2 18 3 34.5t1 32.5q-1 60 -16.5 89.5t-60.5 29.5zM198 713q6 2 13 2q5 0 10 -2t10 -7
q27 -27 48 -50l33.5 -37t15.5 -20q0 -5 -12.5 -12.5t-28.5 -7.5q-20 20 -36 38l-26.5 29t-14.5 19q-20 -25 -38 -43q-15 -16 -28.5 -29t-18.5 -13q-16 0 -25 7t-13 12z" />
    <glyph glyph-name="edieresis" unicode="&#xeb;" horiz-adv-x="375" 
d="M217 510q66 0 96 -41.5t30 -116.5q0 -32 -2.5 -63.5t-7.5 -56.5q-32 -6 -67 -10t-67.5 -5.5t-60.5 -2t-44 -0.5q0 -55 8.5 -88.5t23.5 -51.5t36.5 -24t48.5 -6q34 0 65.5 8.5t54.5 25.5q4 -10 5.5 -20.5t1.5 -18.5q0 -9 -11 -18t-29.5 -15.5t-43.5 -11t-52 -4.5
q-36 0 -66 8t-51.5 33t-34 71t-12.5 121q0 96 16.5 153t42 87t57.5 38.5t63 8.5zM212 460q-19 0 -39 -6.5t-36.5 -27.5t-27.5 -60.5t-14 -105.5h38.5t50.5 1.5t53.5 4.5t47.5 8q2 18 3 34.5t1 32.5q-1 60 -16.5 89.5t-60.5 29.5zM101 649q0 17 10 29t29 12q20 0 30 -12
t10 -29q0 -18 -11 -29.5t-29 -11.5q-21 0 -30 11t-9 30zM242 649q0 17 10 29t29 12q20 0 30 -12t10 -29q0 -18 -11 -29.5t-29 -11.5q-21 0 -30 11t-9 30z" />
    <glyph glyph-name="igrave" unicode="&#xec;" horiz-adv-x="171" 
d="M114 13q0 -5 -1 -7.5t-6.5 -4t-17 -1.5h-32.5v473q0 20 12 23.5t45 3.5v-487zM113 583q-2 0 -22.5 15l-46 34l-47.5 36t-25 21q1 5 3 12.5t5.5 14t8 11.5t9.5 5q1 0 10.5 -7.5l24 -19t31 -26l31.5 -27.5t25.5 -23t13.5 -14q-3 -9 -7 -16q-3 -6 -6.5 -11t-7.5 -5z" />
    <glyph glyph-name="iacute" unicode="&#xed;" horiz-adv-x="171" 
d="M114 13q0 -5 -1 -7.5t-6.5 -4t-17 -1.5h-32.5v473q0 20 12 23.5t45 3.5v-487zM67 578q-5 0 -8.5 5t-6.5 11q-4 7 -7 16l44 42.5t43 38l33.5 27t15.5 10.5q5 0 9.5 -5t8 -12t5.5 -14.5t3 -12.5q-3 -4 -18 -16l-35.5 -27.5l-43.5 -32.5t-43 -30z" />
    <glyph glyph-name="icircumflex" unicode="&#xee;" horiz-adv-x="171" 
d="M114 13q0 -5 -1 -7.5t-6.5 -4t-17 -1.5h-32.5v473q0 20 12 23.5t45 3.5v-487zM75 713q6 2 13 2q5 0 10 -2t10 -7q27 -27 48 -50l33.5 -37t15.5 -20q0 -5 -12.5 -12.5t-28.5 -7.5q-20 20 -36 38l-26.5 29t-14.5 19q-20 -25 -38 -43q-15 -16 -28.5 -29t-18.5 -13
q-16 0 -25 7t-13 12z" />
    <glyph glyph-name="idieresis" unicode="&#xef;" horiz-adv-x="171" 
d="M114 13q0 -5 -1 -7.5t-6.5 -4t-17 -1.5h-32.5v473q0 20 12 23.5t45 3.5v-487zM-22 649q0 17 10 29t29 12q20 0 30 -12t10 -29q0 -18 -11 -29.5t-29 -11.5q-21 0 -30 11t-9 30zM119 649q0 17 10 29t29 12q20 0 30 -12t10 -29q0 -18 -11 -29.5t-29 -11.5q-21 0 -30 11
t-9 30z" />
    <glyph glyph-name="ntilde" unicode="&#xf1;" horiz-adv-x="401" 
d="M55 475q35 15 77.5 25t84.5 10q40 0 66.5 -8t42.5 -25t22 -43t6 -61v-360q0 -5 -1 -7.5t-6.5 -4t-16.5 -1.5h-32v358q0 27 -3.5 46.5t-12.5 32t-25 18.5t-42 6q-22 0 -52 -5.5t-53 -17.5v-425q0 -5 -1 -7.5t-6.5 -4t-16.5 -1.5h-31v475zM69 624q24 41 50 54.5t52 13.5
q17 0 27.5 -8t19 -17.5t18.5 -17.5t26 -8q19 0 31 7t19 15.5t11 15.5t9 7t9 -5t7 -11q4 -7 6 -16q-3 -7 -11 -18t-20 -21.5t-29 -18.5t-39 -8t-34.5 8.5t-21.5 18l-17 18t-21 8.5q-14 0 -24 -7t-17.5 -15.5t-12.5 -15.5t-9 -7q-6 0 -11 4.5t-9 9.5z" />
    <glyph glyph-name="ograve" unicode="&#xf2;" horiz-adv-x="383" 
d="M31 249q0 139 44.5 200t122.5 61q39 0 68 -12t48.5 -41.5t29 -79.5t9.5 -127q0 -135 -43 -197.5t-123 -62.5q-36 0 -65 8.5t-49.5 36t-31 78.5t-10.5 136zM90 245q0 -65 6.5 -105.5t19.5 -63t31 -30.5t42 -8t43 11.5t33 37t21.5 66t7.5 99.5q0 65 -6.5 105.5t-19 63.5
t-30.5 31.5t-42 8.5t-43.5 -10t-33.5 -35t-21.5 -66.5t-7.5 -104.5zM223 583q-2 0 -22.5 15l-46 34l-47.5 36t-25 21q1 5 3 12.5t5.5 14t8 11.5t9.5 5q1 0 10.5 -7.5l24 -19t31 -26l31.5 -27.5t25.5 -23t13.5 -14q-3 -9 -7 -16q-3 -6 -6.5 -11t-7.5 -5z" />
    <glyph glyph-name="oacute" unicode="&#xf3;" horiz-adv-x="383" 
d="M31 249q0 139 44.5 200t122.5 61q39 0 68 -12t48.5 -41.5t29 -79.5t9.5 -127q0 -135 -43 -197.5t-123 -62.5q-36 0 -65 8.5t-49.5 36t-31 78.5t-10.5 136zM90 245q0 -65 6.5 -105.5t19.5 -63t31 -30.5t42 -8t43 11.5t33 37t21.5 66t7.5 99.5q0 65 -6.5 105.5t-19 63.5
t-30.5 31.5t-42 8.5t-43.5 -10t-33.5 -35t-21.5 -66.5t-7.5 -104.5zM178 578q-5 0 -8.5 5t-6.5 11q-4 7 -7 16l44 42.5t43 38l33.5 27t15.5 10.5q5 0 9.5 -5t8 -12t5.5 -14.5t3 -12.5q-3 -4 -18 -16l-35.5 -27.5l-43.5 -32.5t-43 -30z" />
    <glyph glyph-name="ocircumflex" unicode="&#xf4;" horiz-adv-x="383" 
d="M31 249q0 139 44.5 200t122.5 61q39 0 68 -12t48.5 -41.5t29 -79.5t9.5 -127q0 -135 -43 -197.5t-123 -62.5q-36 0 -65 8.5t-49.5 36t-31 78.5t-10.5 136zM90 245q0 -65 6.5 -105.5t19.5 -63t31 -30.5t42 -8t43 11.5t33 37t21.5 66t7.5 99.5q0 65 -6.5 105.5t-19 63.5
t-30.5 31.5t-42 8.5t-43.5 -10t-33.5 -35t-21.5 -66.5t-7.5 -104.5zM185 713q6 2 13 2q5 0 10 -2t10 -7q27 -27 48 -50l33.5 -37t15.5 -20q0 -5 -12.5 -12.5t-28.5 -7.5q-20 20 -36 38l-26.5 29t-14.5 19q-20 -25 -38 -43q-15 -16 -28.5 -29t-18.5 -13q-16 0 -25 7t-13 12z
" />
    <glyph glyph-name="otilde" unicode="&#xf5;" horiz-adv-x="383" 
d="M31 249q0 139 44.5 200t122.5 61q39 0 68 -12t48.5 -41.5t29 -79.5t9.5 -127q0 -135 -43 -197.5t-123 -62.5q-36 0 -65 8.5t-49.5 36t-31 78.5t-10.5 136zM90 245q0 -65 6.5 -105.5t19.5 -63t31 -30.5t42 -8t43 11.5t33 37t21.5 66t7.5 99.5q0 65 -6.5 105.5t-19 63.5
t-30.5 31.5t-42 8.5t-43.5 -10t-33.5 -35t-21.5 -66.5t-7.5 -104.5zM53 624q24 41 50 54.5t52 13.5q17 0 27.5 -8t19 -17.5t18.5 -17.5t26 -8q19 0 31 7t19 15.5t11 15.5t9 7t9 -5t7 -11q4 -7 6 -16q-3 -7 -11 -18t-20 -21.5t-29 -18.5t-39 -8t-34.5 8.5t-21.5 18l-17 18
t-21 8.5q-14 0 -24 -7t-17.5 -15.5t-12.5 -15.5t-9 -7q-6 0 -11 4.5t-9 9.5z" />
    <glyph glyph-name="odieresis" unicode="&#xf6;" horiz-adv-x="383" 
d="M31 249q0 139 44.5 200t122.5 61q39 0 68 -12t48.5 -41.5t29 -79.5t9.5 -127q0 -135 -43 -197.5t-123 -62.5q-36 0 -65 8.5t-49.5 36t-31 78.5t-10.5 136zM90 245q0 -65 6.5 -105.5t19.5 -63t31 -30.5t42 -8t43 11.5t33 37t21.5 66t7.5 99.5q0 65 -6.5 105.5t-19 63.5
t-30.5 31.5t-42 8.5t-43.5 -10t-33.5 -35t-21.5 -66.5t-7.5 -104.5zM88 649q0 17 10 29t29 12q20 0 30 -12t10 -29q0 -18 -11 -29.5t-29 -11.5q-21 0 -30 11t-9 30zM229 649q0 17 10 29t29 12q20 0 30 -12t10 -29q0 -18 -11 -29.5t-29 -11.5q-21 0 -30 11t-9 30z" />
    <glyph glyph-name="divide" unicode="&#xf7;" 
d="M42 257q0 28 1.5 39t11.5 11h337q0 -29 -1.5 -39.5t-12.5 -10.5h-336zM175 140q0 17 10 29.5t29 12.5q20 0 30 -12t10 -30q0 -17 -11 -29t-29 -12q-21 0 -30 11t-9 30zM175 418q0 17 10 29t29 12q20 0 30 -11.5t10 -29.5t-11 -30t-29 -12q-21 0 -30 11t-9 31z" />
    <glyph glyph-name="oslash" unicode="&#xf8;" horiz-adv-x="424" 
d="M60 -22q-6 1 -19 7t-13 17q0 1 5 10.5t12.5 22.5l15.5 26t13 22q-9 29 -13.5 69t-4.5 97q0 139 43.5 200t121.5 61q36 0 63.5 -10t47.5 -36q11 20 22 37.5t14 20.5q9 -2 16 -6q6 -3 11.5 -7.5t5.5 -10.5q0 -2 -4.5 -10.5t-11.5 -20.5l-14.5 -25t-14.5 -24q11 -30 16 -71
t5 -97q0 -135 -42.5 -197.5t-118.5 -62.5q-40 0 -70 9.5t-50 38.5l-22.5 -39t-13.5 -21zM318 252q0 40 -2.5 70t-7.5 53l-41.5 -70.5l-49.5 -84l-47 -79.5l-34 -56q13 -28 32 -37.5t45 -9.5q24 0 43 11.5t33 37t21.5 66t7.5 99.5zM114 245q0 -35 2 -63t6 -50l170 289
q-12 23 -30.5 31.5t-41.5 8.5q-24 0 -43.5 -10t-33.5 -35t-21.5 -66.5t-7.5 -104.5z" />
    <glyph glyph-name="ugrave" unicode="&#xf9;" horiz-adv-x="416" 
d="M357 25q-33 -17 -73.5 -26t-78.5 -9q-44 0 -72.5 10t-45 32t-23 55.5t-6.5 81.5v317q0 5 0.5 8t6 4.5t17 1.5h32.5v-338q0 -35 4 -58.5t14.5 -38t29.5 -20.5t48 -6q17 0 43 4.5t49 18.5v424q0 5 1 8t6.5 4.5t16.5 1.5h31v-475zM237 583q-2 0 -22.5 15l-46 34l-47.5 36
t-25 21q1 5 3 12.5t5.5 14t8 11.5t9.5 5q1 0 10.5 -7.5l24 -19t31 -26l31.5 -27.5t25.5 -23t13.5 -14q-3 -9 -7 -16q-3 -6 -6.5 -11t-7.5 -5z" />
    <glyph glyph-name="uacute" unicode="&#xfa;" horiz-adv-x="416" 
d="M357 25q-33 -17 -73.5 -26t-78.5 -9q-44 0 -72.5 10t-45 32t-23 55.5t-6.5 81.5v317q0 5 0.5 8t6 4.5t17 1.5h32.5v-338q0 -35 4 -58.5t14.5 -38t29.5 -20.5t48 -6q17 0 43 4.5t49 18.5v424q0 5 1 8t6.5 4.5t16.5 1.5h31v-475zM192 578q-5 0 -8.5 5t-6.5 11q-4 7 -7 16
l44 42.5t43 38l33.5 27t15.5 10.5q5 0 9.5 -5t8 -12t5.5 -14.5t3 -12.5q-3 -4 -18 -16l-35.5 -27.5l-43.5 -32.5t-43 -30z" />
    <glyph glyph-name="ucircumflex" unicode="&#xfb;" horiz-adv-x="416" 
d="M357 25q-33 -17 -73.5 -26t-78.5 -9q-44 0 -72.5 10t-45 32t-23 55.5t-6.5 81.5v317q0 5 0.5 8t6 4.5t17 1.5h32.5v-338q0 -35 4 -58.5t14.5 -38t29.5 -20.5t48 -6q17 0 43 4.5t49 18.5v424q0 5 1 8t6.5 4.5t16.5 1.5h31v-475zM199 713q6 2 13 2q5 0 10 -2t10 -7
q27 -27 48 -50l33.5 -37t15.5 -20q0 -5 -12.5 -12.5t-28.5 -7.5q-20 20 -36 38l-26.5 29t-14.5 19q-20 -25 -38 -43q-15 -16 -28.5 -29t-18.5 -13q-16 0 -25 7t-13 12z" />
    <glyph glyph-name="udieresis" unicode="&#xfc;" horiz-adv-x="416" 
d="M357 25q-33 -17 -73.5 -26t-78.5 -9q-44 0 -72.5 10t-45 32t-23 55.5t-6.5 81.5v317q0 5 0.5 8t6 4.5t17 1.5h32.5v-338q0 -35 4 -58.5t14.5 -38t29.5 -20.5t48 -6q17 0 43 4.5t49 18.5v424q0 5 1 8t6.5 4.5t16.5 1.5h31v-475zM102 649q0 17 10 29t29 12q20 0 30 -12
t10 -29q0 -18 -11 -29.5t-29 -11.5q-21 0 -30 11t-9 30zM243 649q0 17 10 29t29 12q20 0 30 -12t10 -29q0 -18 -11 -29.5t-29 -11.5q-21 0 -30 11t-9 30z" />
    <glyph glyph-name="yacute" unicode="&#xfd;" horiz-adv-x="370" 
d="M33 483q-2 6 -1.5 9.5t5.5 5t16.5 2t32.5 0.5l75 -294q6 -26 11 -51.5t8.5 -47.5l6 -37t3.5 -19q0 3 2.5 18l6 36.5l8 48t10.5 53.5l67 276q1 6 2.5 9.5t7 5t17 2t32.5 0.5l-132 -531q-11 -46 -24.5 -77t-30.5 -50t-37 -27t-45 -8q-36 0 -54.5 8t-18.5 22q0 8 3 17.5
t7 14.5q12 -6 29.5 -10t31.5 -4q28 0 51.5 28t39.5 101zM173 578q-5 0 -8.5 5t-6.5 11q-4 7 -7 16l44 42.5t43 38l33.5 27t15.5 10.5q5 0 9.5 -5t8 -12t5.5 -14.5t3 -12.5q-3 -4 -18 -16l-35.5 -27.5l-43.5 -32.5t-43 -30z" />
    <glyph glyph-name="ydieresis" unicode="&#xff;" horiz-adv-x="370" 
d="M33 483q-2 6 -1.5 9.5t5.5 5t16.5 2t32.5 0.5l75 -294q6 -26 11 -51.5t8.5 -47.5l6 -37t3.5 -19q0 3 2.5 18l6 36.5l8 48t10.5 53.5l67 276q1 6 2.5 9.5t7 5t17 2t32.5 0.5l-132 -531q-11 -46 -24.5 -77t-30.5 -50t-37 -27t-45 -8q-36 0 -54.5 8t-18.5 22q0 8 3 17.5
t7 14.5q12 -6 29.5 -10t31.5 -4q28 0 51.5 28t39.5 101zM83 649q0 17 10 29t29 12q20 0 30 -12t10 -29q0 -18 -11 -29.5t-29 -11.5q-21 0 -30 11t-9 30zM224 649q0 17 10 29t29 12q20 0 30 -12t10 -29q0 -18 -11 -29.5t-29 -11.5q-21 0 -30 11t-9 30z" />
    <glyph glyph-name="dotlessi" unicode="&#x131;" horiz-adv-x="171" 
d="M114 13q0 -5 -1 -7.5t-6.5 -4t-17 -1.5h-32.5v473q0 20 12 23.5t45 3.5v-487z" />
    <glyph glyph-name="OE" unicode="&#x152;" horiz-adv-x="627" 
d="M599 51q0 -35 -1.5 -43t-11.5 -8h-232v65q-22 -39 -55.5 -56.5t-80.5 -17.5q-48 0 -82.5 17.5t-56.5 59t-32.5 111.5t-10.5 175q0 97 11.5 164.5t35 110t59.5 62t84 19.5q45 0 76 -15t52 -50v41q0 3 2 7q2 2 4 4.5t7 2.5h233q0 -34 -1.5 -42.5t-9.5 -8.5h-187v-241h175
q0 -32 -1.5 -41.5t-10.5 -9.5h-163v-306h197zM97 338q0 -80 6.5 -135.5t21 -91t38 -51.5t56.5 -16q34 0 57.5 17t38 54.5t20.5 97t6 144.5q0 83 -5.5 140t-18.5 92.5t-35 51.5t-55 16t-57.5 -17t-40.5 -55t-24 -99t-8 -148z" />
    <glyph glyph-name="oe" unicode="&#x153;" horiz-adv-x="643" 
d="M37 249q0 139 44 200t122 61q48 0 80.5 -18t51.5 -65q13 28 30 44.5t36.5 25t40 11t40.5 2.5q66 0 96 -40t30 -115q0 -32 -2.5 -65t-7.5 -58q-32 -6 -67 -10t-67.5 -5.5t-60.5 -2t-44 -0.5q0 -58 8.5 -92t23.5 -51t35.5 -22t45.5 -5q76 0 124 34q4 -10 5.5 -25t1.5 -26
q0 -5 -11 -11t-29.5 -12t-43.5 -10t-52 -4q-24 0 -45 3t-39 11.5t-32.5 23.5t-24.5 40q-41 -78 -128 -78q-38 0 -68 8.5t-50.5 36t-31.5 78.5t-11 136zM96 245q0 -65 6.5 -105.5t19.5 -63t31 -30.5t42 -8t43 11.5t33 37t21.5 66t7.5 99.5q0 65 -6.5 105.5t-19 63.5t-30.5 31
t-42 8t-43.5 -10t-33.5 -34.5t-21.5 -66t-7.5 -104.5zM477 460q-19 0 -39 -5.5t-36.5 -26t-28 -60.5t-14.5 -108h39t50.5 1.5t53.5 4.5t48 8q2 18 3 36t1 34q-1 60 -16.5 88t-60.5 28z" />
    <glyph glyph-name="circumflex" unicode="&#x2c6;" horiz-adv-x="241" 
d="M111 713q6 2 13 2q5 0 10 -2t10 -7q27 -27 48 -50l33.5 -37t15.5 -20q0 -5 -12.5 -12.5t-28.5 -7.5q-20 20 -36 38l-26.5 29t-14.5 19q-20 -25 -38 -43q-15 -16 -28.5 -29t-18.5 -13q-16 0 -25 7t-13 12z" />
    <glyph glyph-name="dotaccent" horiz-adv-x="65" 
d="M1 669q0 46 33 46q17 0 24 -11t7 -34q-2 -47 -34 -47q-15 0 -23 10.5t-7 35.5z" />
    <glyph glyph-name="ring" unicode="&#x2da;" horiz-adv-x="180" 
d="M0 664q0 48 25 69.5t69 21.5t65 -19.5t21 -70.5q0 -46 -24 -68.5t-69 -22.5q-41 0 -64 19t-23 71zM43 662q0 -23 11 -35.5t34 -12.5t36.5 12t13.5 39q0 28 -11.5 38.5t-32.5 10.5q-25 0 -38 -11.5t-13 -40.5z" />
    <glyph glyph-name="tilde" unicode="&#x2dc;" horiz-adv-x="285" 
d="M0 624q24 41 50 54.5t52 13.5q17 0 27.5 -8t19 -17.5t18.5 -17.5t26 -8q19 0 31 7t19 15.5t11 15.5t9 7t9 -5t7 -11q4 -7 6 -16q-3 -7 -11 -18t-20 -21.5t-29 -18.5t-39 -8t-34.5 8.5t-21.5 18l-17 18t-21 8.5q-14 0 -24 -7t-17.5 -15.5t-12.5 -15.5t-9 -7q-6 0 -11 4.5
t-9 9.5z" />
    <glyph glyph-name="endash" unicode="&#x2013;" horiz-adv-x="436" 
d="M43 257q0 28 1.5 39t11.5 11h337q0 -29 -1.5 -39.5t-12.5 -10.5h-336z" />
    <glyph glyph-name="emdash" unicode="&#x2014;" horiz-adv-x="700" 
d="M6 257q0 28 1.5 39t11.5 11h675q0 -29 -1.5 -39.5t-12.5 -10.5h-674z" />
    <glyph glyph-name="quoteleft" unicode="&#x2018;" horiz-adv-x="159" 
d="M118 620q0 -18 -11 -29.5t-28 -11.5q-20 0 -31 10.5t-11 37.5q0 24 7.5 52.5t17 53.5t20 41.5t16.5 16.5q8 0 14.5 -4.5t8.5 -13.5q-14 -28 -18 -59t-5 -54q20 -12 20 -40z" />
    <glyph glyph-name="quoteright" unicode="&#x2019;" horiz-adv-x="159" 
d="M41 745q0 17 11 29t29 12q19 0 30 -11t11 -37q0 -24 -7.5 -52.5t-17 -53.5t-20 -41.5t-16.5 -16.5q-8 0 -14.5 4.5t-8.5 13.5q14 28 18 59t5 54q-20 12 -20 40z" />
    <glyph glyph-name="quotesinglbase" unicode="&#x201a;" horiz-adv-x="157" 
d="M41 59q0 18 11 29.5t29 11.5q19 0 30 -10.5t11 -37.5q0 -24 -7.5 -52.5t-17 -53t-20 -41.5t-16.5 -17q-8 0 -14.5 4.5t-8.5 13.5q14 29 18 59.5t5 53.5q-20 12 -20 40z" />
    <glyph glyph-name="quotedblleft" unicode="&#x201c;" horiz-adv-x="298" 
d="M118 620q0 -18 -11 -29.5t-28 -11.5q-20 0 -31 10.5t-11 37.5q0 24 7.5 52.5t17 53.5t20 41.5t16.5 16.5q8 0 14.5 -4.5t8.5 -13.5q-14 -28 -18 -59t-5 -54q20 -12 20 -40zM256 620q0 -18 -10.5 -29.5t-28.5 -11.5q-20 0 -30.5 10.5t-10.5 37.5q0 24 7 52.5t17 53.5
t20.5 41.5t16.5 16.5q8 0 14.5 -4.5t8.5 -13.5q-14 -28 -18 -59t-5 -54q19 -12 19 -40z" />
    <glyph glyph-name="quotedblright" unicode="&#x201d;" horiz-adv-x="298" 
d="M180 745q0 17 11 29t28 12q20 0 30.5 -11t10.5 -37q0 -24 -7 -52.5t-17 -53.5t-20 -41.5t-16 -16.5q-8 0 -15 4.5t-9 13.5q14 28 18.5 59t5.5 54q-20 12 -20 40zM41 745q0 17 11 29t29 12q19 0 30 -11t11 -37q0 -24 -7.5 -52.5t-17 -53.5t-20 -41.5t-16.5 -16.5
q-8 0 -14.5 4.5t-8.5 13.5q14 28 18 59t5 54q-20 12 -20 40z" />
    <glyph glyph-name="quotedblbase" unicode="&#x201e;" horiz-adv-x="296" 
d="M180 59q0 18 11 29.5t28 11.5q20 0 30.5 -10.5t10.5 -37.5q0 -24 -7 -52.5t-17 -53t-20 -41.5t-16 -17q-8 0 -15 4.5t-9 13.5q14 29 18.5 59.5t5.5 53.5q-20 12 -20 40zM41 59q0 18 11 29.5t29 11.5q19 0 30 -10.5t11 -37.5q0 -24 -7.5 -52.5t-17 -53t-20 -41.5
t-16.5 -17q-8 0 -14.5 4.5t-8.5 13.5q14 29 18 59.5t5 53.5q-20 12 -20 40z" />
    <glyph glyph-name="bullet" unicode="&#x2022;" horiz-adv-x="214" 
d="M51 282q0 26 16 45.5t44 19.5q32 0 47.5 -18.5t15.5 -46.5t-17 -46.5t-46 -18.5q-32 0 -46 18t-14 47z" />
    <glyph glyph-name="guilsinglleft" unicode="&#x2039;" horiz-adv-x="256" 
d="M28 250q0 5 6.5 18.5t17 32l23.5 40.5l27 44l75 115q8 0 13.5 -4.5t10.5 -9.5q5 -6 9 -14q0 -5 -5.5 -17.5t-15 -29l-21 -36l-23.5 -38.5l-64 -101l66 -99l24 -38t21.5 -35.5t15.5 -28t6 -15.5q-4 -10 -9 -17t-10.5 -12t-12.5 -5q-44 62 -77 114q-15 22 -28.5 44
l-24.5 41t-17.5 32.5t-6.5 18.5z" />
    <glyph glyph-name="guilsinglright" unicode="&#x203a;" horiz-adv-x="256" 
d="M228 250q0 -5 -6.5 -18.5t-17.5 -32.5t-25 -41l-28 -44q-33 -52 -76 -114q-9 3 -16 7q-6 4 -11 10t-5 16q0 4 5.5 16t15 28l21.5 35l24 38l67 100q-37 55 -65 101l-24 38.5t-21 36t-14.5 29t-5.5 17.5q0 8 5 12.5t12 8.5t17 7l74 -115l27 -44l23.5 -40.5t17 -32
t6.5 -18.5z" />
    <glyph glyph-name="fraction" unicode="&#x2044;" horiz-adv-x="196" 
d="M-68 0q-4 -9 -16 -9q-9 0 -20 5.5t-18 16.5l399 684q4 13 18 13q20 0 37 -21z" />
    <glyph glyph-name="Euro" unicode="&#x20ac;" 
d="M303 606q24 0 42 -4.5t30 -11t17.5 -13t5.5 -10.5q0 -11 -3 -21.5t-8 -15.5q-5 5 -26 14.5t-47 9.5q-19 0 -39.5 -5t-39 -21t-33.5 -46.5t-24 -82.5h163q0 -26 -4 -36t-19 -10h-146q-3 -38 -3 -83v-14h135q0 -26 -4 -36t-19 -10h-110q4 -56 15.5 -89t28 -50t36.5 -22
t41 -5q29 0 56 11t41 25q3 -6 6 -16t3 -21q0 -7 -9 -16t-25 -17.5t-36.5 -14t-44.5 -5.5q-32 0 -61 7t-51.5 30t-38 66.5t-19.5 116.5h-91q0 26 4 36t19 10h66v14q0 45 3 83h-92q0 26 4 36t19 10h74q10 67 30 108t45 63t53.5 29t55.5 7z" />
    <glyph glyph-name="minus" unicode="&#x2212;" 
d="M42 257q0 28 1.5 39t11.5 11h337q0 -29 -1.5 -39.5t-12.5 -10.5h-336z" />
    <glyph glyph-name="Eth" unicode="&#xd0;" horiz-adv-x="414" 
d="M181 700q48 0 84.5 -16t60.5 -53t36.5 -96t12.5 -144q0 -120 -15 -196t-41.5 -119.5t-63 -59.5t-78.5 -16h-121v344h-44q0 28 1.5 38.5t11.5 10.5h31v290q0 8 5 12.5t20 4.5h100zM315 391q0 72 -8 121t-25 79.5t-42.5 44t-59.5 13.5h-69v-256h104q0 -28 -1.5 -38.5
t-12.5 -10.5h-90v-291h67q26 0 51 11t44 47t30.5 102.5t11.5 177.5z" />
    <glyph glyph-name="onesuperior" unicode="&#xb9;" horiz-adv-x="408" 
d="M71 624q-7 10 -7 26q0 20 19 26l40.5 11t44 11t39 8.5t23.5 3.5q3 0 9 -0.5t10 -2.5v-366h95q3 -14 3 -25q0 -14 -3.5 -20.5t-14.5 -6.5h-265q-3 13 -3 23q0 14 3.5 21.5t15.5 7.5h113v308z" />
    <glyph glyph-name="threesuperior" unicode="&#xb3;" horiz-adv-x="414" 
d="M141 510q0 8 3.5 14t14.5 6q17 0 34 -1t32 -3q29 19 40.5 38t11.5 41q0 9 -3.5 18.5t-12.5 17.5t-24.5 13.5t-39.5 5.5q-36 0 -65.5 -11t-51.5 -28q-11 11 -11.5 26t7.5 21q16 15 50.5 28.5t88.5 13.5q34 0 57 -7.5t37 -20t20.5 -28.5t6.5 -34q0 -61 -56 -105
q35 -12 54 -37.5t19 -59.5q0 -70 -48 -104.5t-125 -34.5q-43 0 -71.5 9t-39.5 19q-8 7 -8 21q0 18 15 31q17 -14 41.5 -21.5t63.5 -7.5q53 0 84.5 22t31.5 61q0 28 -19 46t-49 22q-17 3 -39.5 3.5t-42.5 0.5q-2 3 -4 11.5t-2 13.5z" />
    <glyph glyph-name="twosuperior" unicode="&#xb2;" horiz-adv-x="401" 
d="M76 610q-8 11 -10 18t-2 16q0 10 12.5 21.5t33.5 21.5t47.5 16.5t53.5 6.5q37 0 60.5 -8.5t37 -23t18.5 -34.5t5 -42q0 -38 -20.5 -72t-51 -65.5t-65.5 -62t-63 -61.5h214q2 -7 3 -12.5t1 -11.5q0 -28 -19 -28h-275q-3 6 -3.5 10.5t-0.5 9.5q0 9 2 17.5t7 14.5
q34 37 70.5 68t67 60.5t50 58t19.5 60.5q0 13 -3 25t-11.5 21t-23.5 14.5t-39 5.5q-41 0 -68 -14.5t-47 -29.5z" />
    <glyph glyph-name="uni2074" unicode="&#x2074;" horiz-adv-x="410" 
d="M299 416h70q5 -12 5 -27q0 -11 -4.5 -18.5t-12.5 -7.5h-58v-60q0 -19 -30 -19q-10 0 -22 3v76h-187q-8 9 -8 26q0 11 7 31q10 31 29 68.5t43 75t50 71t50 56.5q11 12 22.5 15.5t22.5 3.5q6 0 12 -1t11 -2v-291zM248 413l2 228q-18 -16 -39 -41.5t-41.5 -56.5t-37.5 -65
t-26 -65h142z" />
    <glyph glyph-name="onehalf" unicode="&#xbd;" horiz-adv-x="911" 
d="M71 624q-7 10 -7 26q0 20 19 26l40.5 11t44 11t39 8.5t23.5 3.5q3 0 9 -0.5t10 -2.5v-366h95q3 -14 3 -25q0 -14 -3.5 -20.5t-14.5 -6.5h-265q-3 13 -3 23q0 14 3.5 21.5t15.5 7.5h113v308zM291 1q-4 -9 -16 -9q-9 0 -20 5.5t-18 16.5l399 684q4 13 18 13q20 0 37 -21z
M577 321q-8 11 -10 18t-2 16q0 10 12.5 21.5t33.5 21.5t47.5 16.5t53.5 6.5q37 0 60.5 -8.5t37 -23t18.5 -34.5t5 -42q0 -38 -20.5 -72t-51 -65.5t-65.5 -62t-63 -61.5h214q2 -7 3 -12.5t1 -11.5q0 -28 -19 -28h-275q-3 6 -3.5 10.5t-0.5 9.5q0 9 2 17.5t7 14.5
q34 37 70.5 68t67 60.5t50 58t19.5 60.5q0 13 -3 25t-11.5 21t-23.5 14.5t-39 5.5q-41 0 -68 -14.5t-47 -29.5z" />
    <glyph glyph-name="onequarter" unicode="&#xbc;" horiz-adv-x="877" 
d="M71 624q-7 10 -7 26q0 20 19 26l40.5 11t44 11t39 8.5t23.5 3.5q3 0 9 -0.5t10 -2.5v-366h95q3 -14 3 -25q0 -14 -3.5 -20.5t-14.5 -6.5h-265q-3 13 -3 23q0 14 3.5 21.5t15.5 7.5h113v308zM741 128h70q5 -12 5 -27q0 -11 -4.5 -18.5t-12.5 -7.5h-58v-60q0 -19 -30 -19
q-10 0 -22 3v76h-187q-8 9 -8 26q0 11 7 31q10 31 29 68.5t43 75t50 71t50 56.5q11 12 22.5 15.5t22.5 3.5q6 0 12 -1t11 -2v-291zM690 125l2 228q-18 -16 -39 -41.5t-41.5 -56.5t-37.5 -65t-26 -65h142zM291 1q-4 -9 -16 -9q-9 0 -20 5.5t-18 16.5l399 684q4 13 18 13
q20 0 37 -21z" />
    <glyph glyph-name="threequarters" unicode="&#xbe;" horiz-adv-x="874" 
d="M141 510q0 8 3.5 14t14.5 6q17 0 34 -1t32 -3q29 19 40.5 38t11.5 41q0 9 -3.5 18.5t-12.5 17.5t-24.5 13.5t-39.5 5.5q-36 0 -65.5 -11t-51.5 -28q-11 11 -11.5 26t7.5 21q16 15 50.5 28.5t88.5 13.5q34 0 57 -7.5t37 -20t20.5 -28.5t6.5 -34q0 -61 -56 -105
q35 -12 54 -37.5t19 -59.5q0 -70 -48 -104.5t-125 -34.5q-43 0 -71.5 9t-39.5 19q-8 7 -8 21q0 18 15 31q17 -14 41.5 -21.5t63.5 -7.5q53 0 84.5 22t31.5 61q0 28 -19 46t-49 22q-17 3 -39.5 3.5t-42.5 0.5q-2 3 -4 11.5t-2 13.5zM738 128h70q5 -12 5 -27q0 -11 -4.5 -18.5
t-12.5 -7.5h-58v-60q0 -19 -30 -19q-10 0 -22 3v76h-187q-8 9 -8 26q0 11 7 31q10 31 29 68.5t43 75t50 71t50 56.5q11 12 22.5 15.5t22.5 3.5q6 0 12 -1t11 -2v-291zM687 125l2 228q-18 -16 -39 -41.5t-41.5 -56.5t-37.5 -65t-26 -65h142zM297 1q-4 -9 -16 -9q-9 0 -20 5.5
t-18 16.5l399 684q4 13 18 13q20 0 37 -21z" />
    <glyph glyph-name="brokenbar" unicode="&#xa6;" horiz-adv-x="226" 
d="M140 349q0 -12 -5.5 -16t-22.5 -4q-5 0 -12.5 1t-14.5 3v387q0 12 6 17.5t23 5.5q5 0 12 -1t14 -3v-390zM140 -178q0 -12 -5.5 -15.5t-22.5 -3.5q-5 0 -12.5 0.5t-14.5 2.5v395q0 12 6 17t23 5q5 0 12 -1t14 -3v-397z" />
    <glyph glyph-name="less" unicode="&#x3c;" horiz-adv-x="400" 
d="M116 258l238 -104q-1 -20 -9.5 -32t-16.5 -12q-4 0 -9.5 2l-13.5 5l-251 110q-10 14 -10 33q0 21 19 31l268 131q10 -9 14.5 -19t4.5 -18q0 -13 -10 -17z" />
    <glyph glyph-name="greater" unicode="&#x3e;" horiz-adv-x="400" 
d="M285 268l-237 104q0 20 8.5 32t16.5 12q5 0 24 -7l251 -110q9 -15 9 -33q0 -9 -4 -17.5t-15 -13.5l-268 -132q-10 10 -14.5 20t-4.5 17q0 14 10 18z" />
    <glyph glyph-name="asciicircum" unicode="^" horiz-adv-x="430" 
d="M105 223q-9 -7 -13.5 -9t-8.5 -2q-12 0 -18.5 9t-7.5 20l161 146l142 -130q10 -9 10 -18q0 -11 -8 -18.5t-20 -9.5l-129 105z" />
    <glyph glyph-name="braceleft" unicode="{" horiz-adv-x="285" 
d="M257 744q11 -16 11 -34t-14 -20q-44 -2 -70 -20t-26 -67q0 -38 6 -85.5t6 -107.5q0 -26 -4.5 -44.5t-12.5 -31t-18.5 -20.5t-23.5 -13q27 -10 43 -29.5t16 -64.5q0 -62 -6 -110t-6 -92q0 -34 7 -54t20 -30.5t32 -14.5t44 -6q3 -14 3 -21q0 -29 -21 -29q-75 0 -108 30.5
t-33 103.5q0 52 7 100t7 107q0 41 -16.5 58t-43.5 22q-4 12 -4 25q0 22 15 30q10 6 19 12.5t16 16.5t10.5 26t3.5 41q0 57 -7 107t-7 98q0 33 11.5 55t32 36t49 20t62.5 6z" />
    <glyph glyph-name="braceright" unicode="}" horiz-adv-x="285" 
d="M28 -150q-5 7 -7.5 16t-2.5 17q0 18 13 20q45 2 71 20t26 67q0 38 -6 86t-6 108q0 26 4.5 44t12.5 30.5t18.5 20.5t23.5 14q-27 9 -43 29t-16 65q0 62 6 109.5t6 92.5q0 34 -7 53.5t-20 30t-32.5 14.5t-44.5 7q-1 6 -1.5 11t-0.5 10q0 13 5 21t15 8q75 0 108 -31t33 -103
q0 -26 -2 -50.5t-5 -49.5t-5 -51.5t-2 -56.5q0 -41 16.5 -58t43.5 -22q3 -7 4 -13t1 -11q0 -21 -15 -31q-11 -6 -20 -12.5t-16 -16.5t-10.5 -26t-3.5 -41q0 -57 7 -107t7 -98q0 -32 -11.5 -54.5t-32 -36t-49 -19.5t-62.5 -6z" />
    <glyph glyph-name="asciitilde" unicode="~" horiz-adv-x="400" 
d="M12 261q6 9 17 20t26.5 20t35 15.5t42.5 6.5q25 0 41.5 -7.5t30.5 -17t29.5 -17t38.5 -7.5q25 0 44.5 11.5t33.5 28.5q12 11 23.5 2t14.5 -28q-7 -10 -17.5 -21.5t-25.5 -21t-34.5 -16t-43.5 -6.5q-27 0 -45 7.5t-32.5 17t-28.5 17t-34 7.5q-16 0 -29.5 -5t-24 -12
t-19 -13.5t-14.5 -10.5q-9 -4 -18 4.5t-11 25.5z" />
    <glyph glyph-name="degree" unicode="&#xb0;" horiz-adv-x="371" 
d="M97 652q0 48 25 69.5t69 21.5t65 -19.5t21 -70.5q0 -45 -24 -68t-69 -23q-20 0 -36.5 3.5t-27.5 13.5t-17 27.5t-6 45.5zM138 650q0 -26 12 -37.5t35 -11.5q24 0 38 12t14 40q0 29 -11.5 40t-34.5 11q-26 0 -39.5 -12t-13.5 -42z" />
    <glyph glyph-name="sterling" unicode="&#xa3;" horiz-adv-x="383" 
d="M143 278q0 -57 1.5 -113t5.5 -110l183 -4q5 -17 5 -26q0 -17 -18.5 -21t-36.5 -4h-186q-5 77 -7 144.5t-2 133.5h-73q0 29 1.5 39.5t11.5 10.5h60q0 79 11.5 130.5t32.5 82t50 42.5t64 12q20 0 38.5 -3.5t32 -10t21.5 -15t8 -18.5q0 -16 -10 -35q-18 14 -36.5 20.5
t-45.5 6.5q-24 0 -44.5 -8t-35 -30.5t-23 -63.5t-8.5 -106v-4h147q0 -28 -1.5 -39t-12.5 -11h-133z" />
    <glyph glyph-name="section" unicode="&#xa7;" horiz-adv-x="367" 
d="M204 704q48 0 76 -15t33 -28q2 -4 2 -11q0 -19 -12 -34q-19 14 -41.5 22t-54.5 8q-42 0 -65.5 -16.5t-23.5 -42.5q0 -19 8.5 -32.5t25.5 -31.5q10 -11 26.5 -25.5l34.5 -30l35 -31.5t29 -30q23 -25 33 -46.5t10 -53.5q0 -26 -15 -53.5t-47 -47.5l10 -11q23 -25 32.5 -44
t9.5 -46q0 -49 -40 -78.5t-106 -29.5q-48 0 -76.5 14.5t-33.5 28.5q-2 2 -2 5.5v5.5q0 19 12 34q19 -15 41.5 -22.5t54.5 -7.5q43 0 66 16.5t23 42.5q0 19 -8.5 32.5t-25.5 31.5q-11 11 -27 25l-33.5 30l-35 32t-29.5 30q-22 25 -32.5 46.5t-10.5 52.5q0 26 14 54t48 48
l-10 11q-23 25 -32.5 44t-9.5 46q0 49 40 78.5t107 29.5zM133 314q14 -17 37.5 -35.5l47.5 -38.5q23 10 37 31t14 38q0 23 -9 40t-26 37q-14 16 -37.5 34.5l-47.5 38.5q-24 -9 -37 -30.5t-13 -38.5q0 -23 8.5 -39.5t25.5 -36.5z" />
    <glyph glyph-name="paragraph" unicode="&#xb6;" horiz-adv-x="546" 
d="M357 17q0 -14 -8.5 -17t-19.5 -3q-16 0 -26 4v206q-17 -9 -43 -13t-48 -4q-32 0 -62.5 10.5t-54 37t-38 71t-14.5 113.5q0 145 52.5 216t145.5 71q39 0 66 -7t50 -19v-666zM302 647q-8 5 -25 9.5t-43 4.5q-65 0 -100 -59.5t-35 -174.5q0 -58 11 -95t29 -58t40.5 -29.5
t45.5 -8.5q15 -1 38 3.5t39 14.5v393zM487 17q0 -11 -5.5 -15t-22.5 -4q-5 0 -12.5 0.5t-14.5 2.5v666q0 12 6 17.5t23 5.5q11 0 26 -5v-668z" />
    <glyph glyph-name="plusminus" unicode="&#xb1;" horiz-adv-x="433" 
d="M243 280v-137q0 -10 -10.5 -11.5t-39.5 -1.5v150h-150q0 28 1.5 39t11.5 11h137v136q0 11 11 12.5t39 1.5v-150h150q0 -29 -1.5 -39.5t-12.5 -10.5h-136zM42 13q0 28 1.5 39t11.5 11h337q0 -29 -1.5 -39.5t-12.5 -10.5h-336z" />
    <glyph glyph-name="mu" unicode="&#xb5;" horiz-adv-x="419" 
d="M359 23q-29 -13 -69.5 -23t-82.5 -10q-67 0 -95 36v-199q0 -14 -9.5 -18t-20.5 -4q-7 0 -13 1t-11 3v672q0 11 6 17.5t21 6.5q6 0 13.5 -1t13.5 -3v-371q0 -48 26.5 -68t68.5 -20q31 0 55 6t43 14v418q0 12 5 18.5t22 6.5q5 0 13 -1t14 -3v-478z" />
    <glyph glyph-name="ordfeminine" unicode="&#xaa;" horiz-adv-x="335" 
d="M60 678q14 13 43.5 22.5t77.5 9.5q21 0 40 -5t33 -16t22.5 -29.5t8.5 -45.5v-297q-15 -8 -48.5 -18t-74.5 -10q-22 0 -42.5 3.5t-36 16t-25 36.5t-9.5 64q0 37 9.5 61t25.5 37t37.5 18t45.5 5q19 0 38 -3t32 -8v78q0 21 -6.5 33.5t-17 19t-23 8.5t-25.5 2q-32 0 -58 -8
t-43 -16q-8 7 -9.5 21t5.5 21zM237 477q-11 5 -27.5 7.5t-28.5 2.5q-18 0 -33.5 -2t-27.5 -10t-18.5 -24.5t-6.5 -44.5q0 -24 6 -38.5t16.5 -22.5t24.5 -11t30 -3q19 0 37.5 4.5t27.5 10.5v131z" />
    <glyph glyph-name="ordmasculine" unicode="&#xba;" horiz-adv-x="348" 
d="M42 498q0 112 38 162t100 50q31 0 55 -9.5t39.5 -33.5t23.5 -64.5t8 -103.5q0 -107 -35 -158t-101 -51q-30 0 -53.5 8.5t-40 31.5t-25.5 63.5t-9 104.5zM90 494q0 -48 5.5 -78.5t15.5 -48t25 -24t34 -6.5q42 0 65.5 38.5t23.5 124.5q0 48 -5 79t-15 49t-24.5 25t-33.5 7
q-42 0 -66.5 -36.5t-24.5 -129.5z" />
    <glyph glyph-name="logicalnot" unicode="&#xac;" horiz-adv-x="400" 
d="M357 111q-11 -4 -27 -4q-11 0 -18.5 5t-7.5 14v118h-266q-3 8 -4 14t-1 12q0 11 5.5 19t14.5 8h304v-186v0z" />
    <glyph glyph-name="uni00A0" unicode="&#xa0;" horiz-adv-x="172" 
 />
    <glyph glyph-name="macron" unicode="&#xaf;" horiz-adv-x="256" 
d="M3 615q-2 8 -2.5 14t-0.5 12q1 12 6.5 19.5t16.5 7.5h228q5 -11 5 -25q-2 -28 -22 -28h-231z" />
    <glyph glyph-name="eth" unicode="&#xf0;" horiz-adv-x="437" 
d="M302 645q50 -66 74 -153.5t24 -202.5q0 -59 -6.5 -113.5t-25 -95.5t-53 -65.5t-89.5 -24.5q-90 0 -135 61.5t-45 205.5q0 125 45 188.5t126 63.5q69 0 110 -45q-22 90 -77 160l-96 -38q-10 26 -12.5 36.5t7.5 14.5l66 26q-14 14 -30 27l-33 27q6 12 16.5 19.5t21.5 7.5
q13 0 23 -10q15 -12 28.5 -24t26.5 -26l77 31q10 -26 12.5 -36.5t-7.5 -14.5zM345 292q0 26 -1.5 49.5t-3.5 46.5q-42 70 -111 70q-63 0 -95.5 -55.5t-32.5 -153.5q0 -112 32.5 -161.5t91.5 -49.5q40 0 64 21.5t36.5 56.5t16 81t3.5 95z" />
    <glyph glyph-name="thorn" unicode="&#xfe;" horiz-adv-x="400" 
d="M112 496q39 13 89 13q38 0 68.5 -10t52 -34.5t33 -66t11.5 -104.5q0 -100 -18 -159.5t-44.5 -91.5t-55.5 -42t-51 -10q-32 0 -53 9.5t-32 21.5v-218q-12 -4 -32 -4q-14 0 -18.5 4t-4.5 18v886q0 20 11 23.5t44 3.5v-239zM112 77q13 -21 31 -29.5t39 -8.5q15 0 36.5 8.5
t41 34.5t33 75t13.5 131q0 53 -7.5 86.5t-21 52.5t-33.5 26t-44 7q-51 0 -88 -26v-357z" />
    <glyph glyph-name="Thorn" unicode="&#xde;" horiz-adv-x="370" 
d="M55 685q0 11 8 13t29 2h17v-129h63q47 0 80.5 -13.5t54.5 -38t30.5 -60t9.5 -79.5q0 -57 -13 -97t-37 -66t-57 -38t-72 -12h-59v-154q0 -5 -1 -7.5t-6.5 -4t-16.5 -1.5h-30v685zM287 385q0 29 -5 54t-18 43t-34 28.5t-53 10.5t-48 -0.5t-20 -0.5v-300h11.5t20.5 -0.5
t20 -0.5h11q115 0 115 166z" />
    <glyph glyph-name="exclam" unicode="!" horiz-adv-x="189" 
d="M51 40q0 18 11.5 31.5t31.5 13.5q23 0 33.5 -13t10.5 -32q0 -20 -12 -32.5t-32 -12.5q-23 0 -33 12t-10 33zM61 691q0 11 14.5 13.5t56.5 2.5l-9 -491q-1 -17 -13 -21t-42 -4z" />
    <glyph glyph-name="uni0237" horiz-adv-x="182" 
d="M119 -37q0 -34 -5 -63t-18.5 -50t-37.5 -33t-62 -12q-54 0 -81.5 14t-27.5 32q0 19 9 31q17 -11 40.5 -18.5t55.5 -7.5q24 0 38 7.5t21.5 22.5t10 37t2.5 51v499q0 20 11 23.5t44 3.5v-537z" />
    <glyph glyph-name="quotedbl" unicode="&#x22;" horiz-adv-x="243" 
d="M76 585q-1 -1 -6 -1h-10h-15q-1 4 -2.5 23.5t-3 45.5l-3 53.5t-1.5 47.5q0 27 3 29q3 1 11 1.5t16 0.5t16 -0.5t11 -0.5q1 -20 -0.5 -53t-4.5 -64.5t-6 -55.5t-5 -26zM191 585q-1 -1 -6 -1h-10h-15q-1 4 -2.5 23.5t-3 45.5l-3 53.5t-1.5 47.5q0 27 3 29q3 1 11 1.5
t16 0.5t16 -0.5t11 -0.5q1 -20 -0.5 -53t-4.5 -64.5t-6 -55.5t-5 -26z" />
    </font>
</defs>
</svg>
